<svg width="312" height="147" viewBox="0 0 312 147" fill="none" xmlns="http://www.w3.org/2000/svg">
<path d="M95.3009 113.352L94.2177 107.912C94.1735 107.663 94.1219 107.374 94.063 107.044C94.0041 106.714 93.9451 106.355 93.8862 105.967C93.7388 106.355 93.5951 106.714 93.4551 107.044C93.3151 107.374 93.1899 107.667 93.0793 107.923L90.6588 113.352H95.3009ZM99.4676 119.33H97.2461C96.9956 119.33 96.8003 119.271 96.6603 119.154C96.5277 119.029 96.4319 118.872 96.373 118.681L95.7098 115.363H89.7525L88.2715 118.681C88.1905 118.85 88.0578 119 87.8736 119.132C87.6968 119.264 87.4905 119.33 87.2547 119.33H85L92.7257 103.44H95.6546L99.4676 119.33Z" fill="#333399"/>
<path d="M108.247 110.681C107.996 110.41 107.709 110.22 107.384 110.11C107.06 110 106.74 109.945 106.423 109.945C105.937 109.945 105.495 110.095 105.097 110.396C104.699 110.696 104.356 111.088 104.069 111.571C103.789 112.055 103.571 112.601 103.417 113.209C103.262 113.81 103.185 114.414 103.185 115.022C103.185 115.813 103.313 116.403 103.571 116.791C103.837 117.172 104.201 117.363 104.666 117.363C104.96 117.363 105.262 117.264 105.572 117.066C105.881 116.861 106.18 116.582 106.467 116.231C106.754 115.872 107.02 115.451 107.263 114.967C107.513 114.484 107.727 113.963 107.904 113.407L108.247 110.681ZM111.883 103L109.849 119.33H108.401C108.055 119.33 107.819 119.245 107.694 119.077C107.576 118.901 107.517 118.685 107.517 118.429L107.617 116.857C107.344 117.26 107.053 117.626 106.743 117.956C106.434 118.278 106.11 118.553 105.771 118.78C105.432 119.007 105.078 119.183 104.71 119.308C104.349 119.432 103.977 119.495 103.593 119.495C103.122 119.495 102.695 119.41 102.311 119.242C101.928 119.066 101.6 118.806 101.328 118.462C101.055 118.117 100.845 117.681 100.698 117.154C100.55 116.626 100.477 116.004 100.477 115.286C100.477 114.648 100.543 114.026 100.676 113.418C100.808 112.802 100.996 112.22 101.239 111.67C101.482 111.121 101.77 110.615 102.101 110.154C102.44 109.692 102.816 109.293 103.229 108.956C103.641 108.619 104.08 108.355 104.544 108.165C105.016 107.974 105.502 107.879 106.003 107.879C106.511 107.879 106.972 107.971 107.384 108.154C107.797 108.337 108.158 108.59 108.468 108.912L109.208 103H111.883Z" fill="#333399"/>
<path d="M112.382 119.33L113.752 108.044H115.145C115.432 108.044 115.653 108.114 115.808 108.253C115.97 108.392 116.051 108.615 116.051 108.923L115.996 110.165C116.504 109.396 117.057 108.824 117.654 108.451C118.25 108.07 118.873 107.879 119.521 107.879C120.214 107.879 120.763 108.11 121.168 108.571C121.573 109.033 121.809 109.7 121.876 110.571C122.406 109.648 122.992 108.971 123.633 108.538C124.281 108.099 124.985 107.879 125.744 107.879C126.223 107.879 126.643 107.974 127.004 108.165C127.365 108.355 127.66 108.634 127.888 109C128.117 109.359 128.271 109.806 128.352 110.341C128.433 110.868 128.43 111.473 128.341 112.154L127.49 119.33H124.793L125.644 112.154C125.74 111.421 125.718 110.897 125.578 110.582C125.446 110.26 125.173 110.099 124.76 110.099C124.48 110.099 124.208 110.172 123.942 110.319C123.677 110.465 123.423 110.678 123.18 110.956C122.944 111.234 122.723 111.575 122.517 111.978C122.318 112.381 122.141 112.835 121.986 113.341L121.279 119.33H118.582L119.444 112.154C119.532 111.421 119.514 110.897 119.389 110.582C119.264 110.26 118.991 110.099 118.571 110.099C118.276 110.099 117.993 110.176 117.72 110.33C117.455 110.484 117.2 110.707 116.957 111C116.721 111.286 116.5 111.637 116.294 112.055C116.095 112.465 115.918 112.927 115.764 113.44L115.056 119.33H112.382Z" fill="#333399"/>
<path d="M134.066 108.055L132.706 119.33H130.021L131.38 108.055H134.066ZM134.762 104.769C134.762 105.004 134.71 105.223 134.607 105.429C134.512 105.634 134.383 105.813 134.22 105.967C134.058 106.121 133.874 106.245 133.668 106.341C133.462 106.429 133.248 106.473 133.027 106.473C132.813 106.473 132.607 106.429 132.408 106.341C132.209 106.245 132.032 106.121 131.877 105.967C131.723 105.813 131.597 105.634 131.502 105.429C131.413 105.223 131.369 105.004 131.369 104.769C131.369 104.535 131.417 104.311 131.513 104.099C131.608 103.886 131.734 103.703 131.888 103.549C132.043 103.388 132.22 103.264 132.419 103.176C132.625 103.081 132.835 103.033 133.049 103.033C133.27 103.033 133.484 103.081 133.69 103.176C133.896 103.264 134.077 103.385 134.232 103.538C134.394 103.692 134.523 103.875 134.618 104.088C134.714 104.3 134.762 104.527 134.762 104.769Z" fill="#333399"/>
<path d="M138.92 110.385C139.495 109.542 140.132 108.916 140.832 108.505C141.532 108.088 142.255 107.879 142.999 107.879C143.47 107.879 143.894 107.974 144.27 108.165C144.646 108.355 144.955 108.634 145.198 109C145.441 109.359 145.611 109.806 145.707 110.341C145.81 110.868 145.817 111.473 145.729 112.154L144.878 119.33H142.148L142.999 112.154C143.094 111.421 143.058 110.897 142.888 110.582C142.719 110.26 142.409 110.099 141.96 110.099C141.658 110.099 141.348 110.187 141.031 110.363C140.715 110.531 140.409 110.777 140.114 111.099C139.819 111.414 139.547 111.795 139.296 112.242C139.053 112.681 138.854 113.176 138.699 113.725L138.069 119.33H135.339L136.699 108.044H138.08C138.368 108.044 138.589 108.114 138.744 108.253C138.906 108.392 138.987 108.615 138.987 108.923L138.92 110.385Z" fill="#333399"/>
<path d="M170.569 103.44L168.602 119.33H166.082L167.364 108.978C167.394 108.788 167.427 108.582 167.464 108.363C167.508 108.143 167.556 107.916 167.607 107.681L162.114 116.736C161.989 116.941 161.831 117.095 161.639 117.198C161.455 117.3 161.252 117.352 161.031 117.352H160.633C160.412 117.352 160.217 117.3 160.047 117.198C159.885 117.095 159.767 116.941 159.694 116.736L156.4 107.681C156.393 107.908 156.382 108.128 156.367 108.341C156.36 108.553 156.345 108.751 156.323 108.934L155.063 119.33H152.532L154.499 103.44H156.654C156.78 103.44 156.883 103.447 156.964 103.462C157.052 103.469 157.13 103.491 157.196 103.527C157.262 103.557 157.325 103.604 157.384 103.67C157.443 103.729 157.505 103.806 157.572 103.901L160.876 112.978C161.009 113.366 161.12 113.762 161.208 114.165C161.304 113.96 161.4 113.758 161.495 113.56C161.598 113.363 161.709 113.169 161.827 112.978L167.375 103.901C167.464 103.806 167.541 103.729 167.607 103.67C167.681 103.604 167.755 103.557 167.828 103.527C167.902 103.491 167.983 103.469 168.072 103.462C168.16 103.447 168.267 103.44 168.392 103.44H170.569Z" fill="#333399"/>
<path d="M175.891 117.407C176.348 117.407 176.761 117.278 177.129 117.022C177.498 116.758 177.811 116.41 178.069 115.978C178.327 115.538 178.525 115.029 178.665 114.451C178.805 113.872 178.875 113.264 178.875 112.626C178.875 111.711 178.721 111.04 178.411 110.615C178.102 110.183 177.63 109.967 176.997 109.967C176.54 109.967 176.123 110.095 175.748 110.352C175.379 110.608 175.066 110.956 174.808 111.396C174.55 111.828 174.351 112.333 174.211 112.912C174.071 113.491 174.001 114.103 174.001 114.747C174.001 115.663 174.156 116.337 174.466 116.769C174.775 117.194 175.25 117.407 175.891 117.407ZM175.637 119.495C175.011 119.495 174.432 119.392 173.902 119.187C173.371 118.974 172.911 118.667 172.52 118.264C172.13 117.861 171.824 117.366 171.603 116.78C171.382 116.194 171.271 115.524 171.271 114.769C171.271 113.795 171.43 112.886 171.747 112.044C172.063 111.201 172.491 110.473 173.029 109.857C173.574 109.242 174.208 108.758 174.93 108.407C175.652 108.055 176.422 107.879 177.24 107.879C177.866 107.879 178.444 107.985 178.975 108.198C179.513 108.403 179.973 108.707 180.356 109.11C180.747 109.513 181.053 110.007 181.274 110.593C181.495 111.179 181.605 111.85 181.605 112.604C181.605 113.571 181.447 114.476 181.13 115.319C180.813 116.154 180.382 116.883 179.837 117.506C179.299 118.121 178.669 118.608 177.947 118.967C177.225 119.319 176.455 119.495 175.637 119.495Z" fill="#333399"/>
<path d="M186.39 110.385C186.964 109.542 187.602 108.916 188.302 108.505C189.002 108.088 189.724 107.879 190.468 107.879C190.94 107.879 191.363 107.974 191.739 108.165C192.115 108.355 192.424 108.634 192.668 109C192.911 109.359 193.08 109.806 193.176 110.341C193.279 110.868 193.286 111.473 193.198 112.154L192.347 119.33H189.617L190.468 112.154C190.564 111.421 190.527 110.897 190.358 110.582C190.188 110.26 189.879 110.099 189.429 110.099C189.127 110.099 188.818 110.187 188.501 110.363C188.184 110.531 187.878 110.777 187.583 111.099C187.289 111.414 187.016 111.795 186.766 112.242C186.522 112.681 186.323 113.176 186.169 113.725L185.539 119.33H182.809L184.168 108.044H185.55C185.837 108.044 186.058 108.114 186.213 108.253C186.375 108.392 186.456 108.615 186.456 108.923L186.39 110.385Z" fill="#333399"/>
<path d="M198.912 108.055L197.553 119.33H194.867L196.227 108.055H198.912ZM199.609 104.769C199.609 105.004 199.557 105.223 199.454 105.429C199.358 105.634 199.229 105.813 199.067 105.967C198.905 106.121 198.721 106.245 198.515 106.341C198.308 106.429 198.095 106.473 197.874 106.473C197.66 106.473 197.454 106.429 197.255 106.341C197.056 106.245 196.879 106.121 196.724 105.967C196.569 105.813 196.444 105.634 196.348 105.429C196.26 105.223 196.216 105.004 196.216 104.769C196.216 104.535 196.264 104.311 196.359 104.099C196.455 103.886 196.58 103.703 196.735 103.549C196.89 103.388 197.067 103.264 197.266 103.176C197.472 103.081 197.682 103.033 197.896 103.033C198.117 103.033 198.33 103.081 198.537 103.176C198.743 103.264 198.924 103.385 199.078 103.538C199.24 103.692 199.369 103.875 199.465 104.088C199.561 104.3 199.609 104.527 199.609 104.769Z" fill="#333399"/>
<path d="M201.137 117.033C201.137 116.982 201.137 116.923 201.137 116.857C201.137 116.784 201.14 116.681 201.148 116.549C201.162 116.41 201.181 116.231 201.203 116.011C201.232 115.784 201.269 115.495 201.313 115.143L201.943 110.088H200.871C200.739 110.088 200.628 110.04 200.54 109.945C200.459 109.85 200.433 109.707 200.462 109.516L200.584 108.44L202.308 108.143L203.214 105.066C203.266 104.919 203.343 104.806 203.447 104.725C203.55 104.645 203.679 104.604 203.833 104.604H205.292L204.85 108.154H207.591L207.359 110.088H204.607L203.999 115C203.962 115.3 203.933 115.538 203.911 115.714C203.889 115.89 203.87 116.029 203.856 116.132C203.848 116.227 203.844 116.297 203.844 116.341C203.844 116.377 203.844 116.403 203.844 116.418C203.844 116.696 203.911 116.916 204.043 117.077C204.183 117.238 204.379 117.319 204.629 117.319C204.784 117.319 204.917 117.3 205.027 117.264C205.138 117.22 205.233 117.176 205.314 117.132C205.395 117.088 205.469 117.048 205.535 117.011C205.602 116.967 205.664 116.945 205.723 116.945C205.804 116.945 205.867 116.967 205.911 117.011C205.955 117.048 205.996 117.106 206.033 117.187L206.619 118.506C206.213 118.835 205.764 119.084 205.27 119.253C204.784 119.421 204.287 119.506 203.778 119.506C202.975 119.506 202.338 119.289 201.866 118.857C201.402 118.425 201.159 117.817 201.137 117.033Z" fill="#333399"/>
<path d="M212.697 117.407C213.154 117.407 213.566 117.278 213.935 117.022C214.303 116.758 214.616 116.41 214.874 115.978C215.132 115.538 215.331 115.029 215.471 114.451C215.611 113.872 215.681 113.264 215.681 112.626C215.681 111.711 215.526 111.04 215.217 110.615C214.907 110.183 214.436 109.967 213.802 109.967C213.345 109.967 212.929 110.095 212.553 110.352C212.185 110.608 211.872 110.956 211.614 111.396C211.356 111.828 211.157 112.333 211.017 112.912C210.877 113.491 210.807 114.103 210.807 114.747C210.807 115.663 210.962 116.337 211.271 116.769C211.58 117.194 212.056 117.407 212.697 117.407ZM212.443 119.495C211.816 119.495 211.238 119.392 210.707 119.187C210.177 118.974 209.716 118.667 209.326 118.264C208.935 117.861 208.629 117.366 208.408 116.78C208.187 116.194 208.077 115.524 208.077 114.769C208.077 113.795 208.235 112.886 208.552 112.044C208.869 111.201 209.296 110.473 209.834 109.857C210.379 109.242 211.013 108.758 211.735 108.407C212.457 108.055 213.227 107.879 214.045 107.879C214.671 107.879 215.25 107.985 215.78 108.198C216.318 108.403 216.779 108.707 217.162 109.11C217.552 109.513 217.858 110.007 218.079 110.593C218.3 111.179 218.411 111.85 218.411 112.604C218.411 113.571 218.252 114.476 217.936 115.319C217.619 116.154 217.188 116.883 216.642 117.506C216.105 118.121 215.475 118.608 214.753 118.967C214.03 119.319 213.26 119.495 212.443 119.495Z" fill="#333399"/>
<path d="M223.195 110.758C223.483 110.201 223.788 109.725 224.113 109.33C224.444 108.927 224.787 108.615 225.14 108.396C225.494 108.169 225.859 108.037 226.235 108C226.61 107.956 226.986 108.015 227.362 108.176L226.865 110.769C225.966 110.396 225.177 110.487 224.499 111.044C223.829 111.601 223.291 112.696 222.886 114.33L222.278 119.33H219.603L220.974 108.044H222.366C222.654 108.044 222.875 108.114 223.029 108.253C223.192 108.392 223.273 108.615 223.273 108.923L223.195 110.758Z" fill="#333399"/>
<path d="M241.801 106.297C241.698 106.443 241.595 106.553 241.492 106.626C241.396 106.692 241.274 106.725 241.127 106.725C240.98 106.725 240.829 106.667 240.674 106.549C240.519 106.432 240.335 106.304 240.121 106.165C239.907 106.018 239.653 105.886 239.359 105.769C239.064 105.652 238.71 105.593 238.298 105.593C237.9 105.593 237.546 105.652 237.236 105.769C236.927 105.886 236.665 106.048 236.452 106.253C236.245 106.458 236.087 106.7 235.976 106.978C235.873 107.256 235.822 107.557 235.822 107.879C235.822 108.216 235.906 108.498 236.076 108.725C236.253 108.945 236.481 109.139 236.761 109.308C237.041 109.476 237.362 109.626 237.723 109.758C238.084 109.89 238.449 110.029 238.817 110.176C239.193 110.322 239.561 110.491 239.922 110.681C240.283 110.872 240.604 111.106 240.884 111.385C241.164 111.663 241.388 112 241.558 112.396C241.735 112.784 241.823 113.256 241.823 113.813C241.823 114.59 241.687 115.322 241.414 116.011C241.142 116.7 240.755 117.304 240.254 117.824C239.753 118.337 239.141 118.747 238.419 119.055C237.697 119.355 236.89 119.506 235.999 119.506C235.534 119.506 235.078 119.454 234.628 119.352C234.179 119.256 233.755 119.117 233.357 118.934C232.959 118.751 232.591 118.531 232.252 118.275C231.913 118.018 231.618 117.733 231.368 117.418L232.384 116.055C232.465 115.952 232.569 115.868 232.694 115.802C232.819 115.736 232.944 115.703 233.07 115.703C233.188 115.703 233.302 115.74 233.412 115.813C233.53 115.886 233.655 115.978 233.788 116.088C233.928 116.19 234.075 116.308 234.23 116.44C234.392 116.564 234.573 116.681 234.772 116.791C234.978 116.894 235.21 116.982 235.468 117.055C235.733 117.128 236.032 117.165 236.363 117.165C237.203 117.165 237.859 116.93 238.331 116.462C238.802 115.993 239.038 115.344 239.038 114.516C239.038 114.15 238.953 113.85 238.784 113.615C238.614 113.381 238.39 113.183 238.11 113.022C237.83 112.861 237.509 112.722 237.148 112.604C236.794 112.48 236.433 112.352 236.065 112.22C235.696 112.081 235.332 111.923 234.971 111.747C234.617 111.564 234.3 111.333 234.02 111.055C233.74 110.769 233.515 110.421 233.346 110.011C233.177 109.601 233.092 109.095 233.092 108.495C233.092 107.813 233.217 107.158 233.468 106.527C233.725 105.897 234.09 105.344 234.562 104.868C235.041 104.385 235.615 104 236.286 103.714C236.964 103.421 237.726 103.275 238.574 103.275C239.009 103.275 239.425 103.319 239.823 103.407C240.228 103.495 240.604 103.619 240.95 103.78C241.296 103.941 241.613 104.136 241.901 104.363C242.195 104.582 242.45 104.828 242.663 105.099L241.801 106.297Z" fill="#333399"/>
<path d="M253.845 108.055L252.474 119.33H251.093C250.444 119.33 250.12 119.018 250.12 118.396L250.186 117.099C249.612 117.905 248.982 118.506 248.296 118.901C247.618 119.297 246.915 119.495 246.185 119.495C245.714 119.495 245.29 119.399 244.914 119.209C244.538 119.018 244.229 118.744 243.986 118.385C243.743 118.018 243.57 117.568 243.466 117.033C243.371 116.498 243.367 115.89 243.455 115.209L244.306 108.055H247.036L246.185 115.209C246.09 115.949 246.126 116.48 246.296 116.802C246.465 117.117 246.775 117.275 247.224 117.275C247.519 117.275 247.817 117.194 248.12 117.033C248.429 116.872 248.727 116.641 249.015 116.341C249.302 116.04 249.567 115.681 249.811 115.264C250.054 114.839 250.256 114.366 250.418 113.846L251.115 108.055H253.845Z" fill="#333399"/>
<path d="M259.161 108.055L257.802 119.33H255.116L256.475 108.055H259.161ZM259.858 104.769C259.858 105.004 259.806 105.223 259.703 105.429C259.607 105.634 259.478 105.813 259.316 105.967C259.154 106.121 258.97 106.245 258.763 106.341C258.557 106.429 258.343 106.473 258.122 106.473C257.909 106.473 257.702 106.429 257.503 106.341C257.304 106.245 257.128 106.121 256.973 105.967C256.818 105.813 256.693 105.634 256.597 105.429C256.509 105.223 256.464 105.004 256.464 104.769C256.464 104.535 256.512 104.311 256.608 104.099C256.704 103.886 256.829 103.703 256.984 103.549C257.139 103.388 257.315 103.264 257.514 103.176C257.721 103.081 257.931 103.033 258.144 103.033C258.365 103.033 258.579 103.081 258.785 103.176C258.992 103.264 259.172 103.385 259.327 103.538C259.489 103.692 259.618 103.875 259.714 104.088C259.81 104.3 259.858 104.527 259.858 104.769Z" fill="#333399"/>
<path d="M261.385 117.033C261.385 116.982 261.385 116.923 261.385 116.857C261.385 116.784 261.389 116.681 261.396 116.549C261.411 116.41 261.43 116.231 261.452 116.011C261.481 115.784 261.518 115.495 261.562 115.143L262.192 110.088H261.12C260.987 110.088 260.877 110.04 260.789 109.945C260.707 109.85 260.682 109.707 260.711 109.516L260.833 108.44L262.557 108.143L263.463 105.066C263.515 104.919 263.592 104.806 263.695 104.725C263.798 104.645 263.927 104.604 264.082 104.604H265.541L265.099 108.154H267.84L267.608 110.088H264.856L264.248 115C264.211 115.3 264.182 115.538 264.16 115.714C264.137 115.89 264.119 116.029 264.104 116.132C264.097 116.227 264.093 116.297 264.093 116.341C264.093 116.377 264.093 116.403 264.093 116.418C264.093 116.696 264.16 116.916 264.292 117.077C264.432 117.238 264.627 117.319 264.878 117.319C265.033 117.319 265.165 117.3 265.276 117.264C265.386 117.22 265.482 117.176 265.563 117.132C265.644 117.088 265.718 117.048 265.784 117.011C265.851 116.967 265.913 116.945 265.972 116.945C266.053 116.945 266.116 116.967 266.16 117.011C266.204 117.048 266.245 117.106 266.282 117.187L266.867 118.506C266.462 118.835 266.013 119.084 265.519 119.253C265.033 119.421 264.535 119.506 264.027 119.506C263.224 119.506 262.586 119.289 262.115 118.857C261.651 118.425 261.407 117.817 261.385 117.033Z" fill="#333399"/>
<path d="M274.194 109.791C273.826 109.791 273.483 109.868 273.167 110.022C272.85 110.169 272.562 110.377 272.304 110.648C272.054 110.919 271.833 111.245 271.641 111.626C271.457 112 271.31 112.41 271.199 112.857C272.113 112.733 272.846 112.597 273.399 112.451C273.959 112.297 274.39 112.136 274.692 111.967C274.994 111.791 275.193 111.604 275.289 111.407C275.392 111.201 275.443 110.989 275.443 110.769C275.443 110.659 275.418 110.546 275.366 110.429C275.322 110.311 275.248 110.209 275.145 110.121C275.049 110.026 274.92 109.949 274.758 109.89C274.603 109.824 274.415 109.791 274.194 109.791ZM270.967 114.736C270.967 116.509 271.722 117.396 273.233 117.396C273.557 117.396 273.844 117.366 274.095 117.308C274.345 117.242 274.563 117.165 274.747 117.077C274.939 116.989 275.108 116.89 275.255 116.78C275.41 116.67 275.55 116.571 275.675 116.484C275.808 116.396 275.937 116.322 276.062 116.264C276.188 116.198 276.324 116.165 276.471 116.165C276.56 116.165 276.644 116.187 276.725 116.231C276.814 116.275 276.891 116.333 276.958 116.407L277.654 117.242C277.263 117.63 276.88 117.967 276.504 118.253C276.129 118.538 275.745 118.773 275.355 118.956C274.964 119.139 274.552 119.275 274.117 119.363C273.682 119.451 273.211 119.495 272.702 119.495C272.039 119.495 271.439 119.385 270.901 119.165C270.363 118.938 269.902 118.623 269.519 118.22C269.136 117.81 268.838 117.319 268.624 116.747C268.418 116.169 268.315 115.524 268.315 114.813C268.315 114.22 268.377 113.637 268.502 113.066C268.635 112.495 268.823 111.952 269.066 111.44C269.309 110.927 269.608 110.454 269.961 110.022C270.315 109.59 270.713 109.216 271.155 108.901C271.604 108.586 272.094 108.341 272.625 108.165C273.163 107.989 273.738 107.901 274.349 107.901C274.939 107.901 275.454 107.985 275.897 108.154C276.346 108.322 276.718 108.542 277.013 108.813C277.315 109.077 277.54 109.374 277.687 109.703C277.834 110.033 277.908 110.355 277.908 110.67C277.908 111.176 277.805 111.637 277.599 112.055C277.4 112.473 277.039 112.846 276.515 113.176C276 113.505 275.292 113.791 274.393 114.033C273.494 114.267 272.352 114.454 270.967 114.593V114.736Z" fill="#333399"/>
<path d="M91.093 141.732C91.489 141.732 91.84 141.699 92.146 141.633C92.452 141.567 92.722 141.486 92.956 141.39C93.19 141.294 93.388 141.189 93.55 141.075C93.718 140.955 93.862 140.847 93.982 140.751C94.108 140.655 94.213 140.574 94.297 140.508C94.381 140.442 94.456 140.409 94.522 140.409C94.576 140.409 94.621 140.421 94.657 140.445C94.693 140.463 94.723 140.487 94.747 140.517L95.332 141.246C94.768 141.858 94.117 142.335 93.379 142.677C92.647 143.013 91.792 143.181 90.814 143.181C90.04 143.181 89.347 143.043 88.735 142.767C88.129 142.491 87.613 142.107 87.187 141.615C86.767 141.117 86.443 140.526 86.215 139.842C85.993 139.158 85.882 138.405 85.882 137.583C85.882 136.461 86.056 135.435 86.404 134.505C86.752 133.575 87.229 132.777 87.835 132.111C88.447 131.439 89.164 130.92 89.986 130.554C90.808 130.182 91.693 129.996 92.641 129.996C93.097 129.996 93.511 130.035 93.883 130.113C94.255 130.191 94.594 130.305 94.9 130.455C95.206 130.605 95.482 130.785 95.728 130.995C95.98 131.205 96.214 131.439 96.43 131.697L95.854 132.399C95.806 132.459 95.752 132.51 95.692 132.552C95.632 132.588 95.557 132.606 95.467 132.606C95.359 132.606 95.245 132.546 95.125 132.426C95.005 132.306 94.84 132.177 94.63 132.039C94.426 131.895 94.159 131.763 93.829 131.643C93.505 131.523 93.082 131.463 92.56 131.463C91.858 131.463 91.204 131.604 90.598 131.886C89.998 132.162 89.476 132.561 89.032 133.083C88.588 133.599 88.237 134.226 87.979 134.964C87.727 135.702 87.601 136.53 87.601 137.448C87.601 138.114 87.688 138.711 87.862 139.239C88.036 139.767 88.276 140.217 88.582 140.589C88.894 140.955 89.263 141.237 89.689 141.435C90.115 141.633 90.583 141.732 91.093 141.732ZM100.028 141.912C100.466 141.912 100.862 141.792 101.216 141.552C101.576 141.312 101.882 140.994 102.134 140.598C102.392 140.196 102.59 139.734 102.728 139.212C102.866 138.69 102.935 138.144 102.935 137.574C102.935 136.734 102.767 136.104 102.431 135.684C102.101 135.258 101.624 135.045 101 135.045C100.556 135.045 100.154 135.165 99.7942 135.405C99.4402 135.639 99.1372 135.954 98.8852 136.35C98.6332 136.746 98.4382 137.205 98.3002 137.727C98.1622 138.249 98.0932 138.795 98.0932 139.365C98.0932 140.205 98.2582 140.841 98.5882 141.273C98.9182 141.699 99.3982 141.912 100.028 141.912ZM99.8752 143.163C99.3772 143.163 98.9212 143.079 98.5072 142.911C98.0932 142.737 97.7362 142.488 97.4362 142.164C97.1362 141.84 96.9022 141.444 96.7342 140.976C96.5662 140.508 96.4822 139.974 96.4822 139.374C96.4822 138.606 96.6022 137.883 96.8422 137.205C97.0822 136.527 97.4122 135.936 97.8322 135.432C98.2522 134.922 98.7442 134.52 99.3082 134.226C99.8782 133.932 100.49 133.785 101.144 133.785C101.642 133.785 102.098 133.872 102.512 134.046C102.926 134.214 103.283 134.46 103.583 134.784C103.883 135.108 104.117 135.504 104.285 135.972C104.453 136.44 104.537 136.971 104.537 137.565C104.537 138.327 104.417 139.047 104.177 139.725C103.937 140.403 103.607 140.997 103.187 141.507C102.773 142.017 102.281 142.422 101.711 142.722C101.141 143.016 100.529 143.163 99.8752 143.163ZM108.111 136.224C108.597 135.42 109.146 134.814 109.758 134.406C110.37 133.992 111 133.785 111.648 133.785C112.032 133.785 112.368 133.863 112.656 134.019C112.95 134.169 113.187 134.391 113.367 134.685C113.553 134.979 113.679 135.342 113.745 135.774C113.811 136.2 113.811 136.686 113.745 137.232L113.061 143.037H111.468L112.152 137.232C112.236 136.512 112.191 135.981 112.017 135.639C111.843 135.291 111.522 135.117 111.054 135.117C110.766 135.117 110.472 135.195 110.172 135.351C109.878 135.507 109.593 135.729 109.317 136.017C109.041 136.305 108.783 136.653 108.543 137.061C108.309 137.463 108.108 137.913 107.94 138.411L107.418 143.037H105.816L106.914 133.911H107.706C108.066 133.911 108.246 134.091 108.246 134.451L108.111 136.224ZM121.238 135.378C121.19 135.45 121.142 135.504 121.094 135.54C121.046 135.57 120.986 135.585 120.914 135.585C120.83 135.585 120.737 135.552 120.635 135.486C120.539 135.42 120.419 135.348 120.275 135.27C120.137 135.186 119.966 135.111 119.762 135.045C119.558 134.973 119.312 134.937 119.024 134.937C118.754 134.937 118.508 134.976 118.286 135.054C118.064 135.126 117.872 135.228 117.71 135.36C117.554 135.492 117.431 135.648 117.341 135.828C117.257 136.002 117.215 136.188 117.215 136.386C117.215 136.668 117.308 136.893 117.494 137.061C117.68 137.229 117.914 137.376 118.196 137.502C118.478 137.622 118.781 137.739 119.105 137.853C119.429 137.967 119.732 138.111 120.014 138.285C120.296 138.459 120.53 138.681 120.716 138.951C120.902 139.221 120.995 139.572 120.995 140.004C120.995 140.424 120.911 140.826 120.743 141.21C120.581 141.594 120.344 141.933 120.032 142.227C119.726 142.515 119.354 142.746 118.916 142.92C118.484 143.094 117.998 143.181 117.458 143.181C116.876 143.181 116.36 143.079 115.91 142.875C115.466 142.665 115.103 142.398 114.821 142.074L115.217 141.462C115.271 141.384 115.328 141.324 115.388 141.282C115.454 141.24 115.538 141.219 115.64 141.219C115.736 141.219 115.832 141.261 115.928 141.345C116.024 141.429 116.144 141.525 116.288 141.633C116.432 141.735 116.612 141.828 116.828 141.912C117.05 141.996 117.329 142.038 117.665 142.038C117.959 142.038 118.223 141.993 118.457 141.903C118.697 141.813 118.898 141.693 119.06 141.543C119.228 141.393 119.354 141.219 119.438 141.021C119.528 140.817 119.573 140.601 119.573 140.373C119.573 140.067 119.48 139.824 119.294 139.644C119.108 139.464 118.874 139.314 118.592 139.194C118.31 139.074 118.007 138.963 117.683 138.861C117.359 138.753 117.056 138.618 116.774 138.456C116.492 138.288 116.258 138.072 116.072 137.808C115.886 137.544 115.793 137.193 115.793 136.755C115.793 136.371 115.868 136.002 116.018 135.648C116.174 135.288 116.396 134.97 116.684 134.694C116.972 134.418 117.32 134.199 117.728 134.037C118.142 133.869 118.607 133.785 119.123 133.785C119.669 133.785 120.149 133.878 120.563 134.064C120.983 134.244 121.343 134.49 121.643 134.802L121.238 135.378ZM126.114 141.912C126.552 141.912 126.948 141.792 127.302 141.552C127.662 141.312 127.968 140.994 128.22 140.598C128.478 140.196 128.676 139.734 128.814 139.212C128.952 138.69 129.021 138.144 129.021 137.574C129.021 136.734 128.853 136.104 128.517 135.684C128.187 135.258 127.71 135.045 127.086 135.045C126.642 135.045 126.24 135.165 125.88 135.405C125.526 135.639 125.223 135.954 124.971 136.35C124.719 136.746 124.524 137.205 124.386 137.727C124.248 138.249 124.179 138.795 124.179 139.365C124.179 140.205 124.344 140.841 124.674 141.273C125.004 141.699 125.484 141.912 126.114 141.912ZM125.961 143.163C125.463 143.163 125.007 143.079 124.593 142.911C124.179 142.737 123.822 142.488 123.522 142.164C123.222 141.84 122.988 141.444 122.82 140.976C122.652 140.508 122.568 139.974 122.568 139.374C122.568 138.606 122.688 137.883 122.928 137.205C123.168 136.527 123.498 135.936 123.918 135.432C124.338 134.922 124.83 134.52 125.394 134.226C125.964 133.932 126.576 133.785 127.23 133.785C127.728 133.785 128.184 133.872 128.598 134.046C129.012 134.214 129.369 134.46 129.669 134.784C129.969 135.108 130.203 135.504 130.371 135.972C130.539 136.44 130.623 136.971 130.623 137.565C130.623 138.327 130.503 139.047 130.263 139.725C130.023 140.403 129.693 140.997 129.273 141.507C128.859 142.017 128.367 142.422 127.797 142.722C127.227 143.016 126.615 143.163 125.961 143.163ZM131.947 143.037L133.558 129.78H135.133L133.522 143.037H131.947ZM142.191 135.036C142.059 135.006 141.927 134.988 141.795 134.982C141.669 134.97 141.543 134.964 141.417 134.964C141.057 134.964 140.709 135.024 140.373 135.144C140.037 135.258 139.722 135.42 139.428 135.63C139.134 135.84 138.867 136.092 138.627 136.386C138.387 136.674 138.18 136.992 138.006 137.34C137.838 137.688 137.706 138.06 137.61 138.456C137.514 138.846 137.466 139.248 137.466 139.662C137.466 141.108 137.928 141.831 138.852 141.831C139.146 141.831 139.434 141.741 139.716 141.561C139.998 141.375 140.265 141.12 140.517 140.796C140.775 140.466 141.012 140.079 141.228 139.635C141.444 139.185 141.636 138.693 141.804 138.159L142.191 135.036ZM141.579 140.634C141.363 141.018 141.129 141.366 140.877 141.678C140.631 141.99 140.367 142.257 140.085 142.479C139.809 142.695 139.515 142.863 139.203 142.983C138.897 143.103 138.579 143.163 138.249 143.163C137.889 143.163 137.562 143.094 137.268 142.956C136.974 142.812 136.722 142.605 136.512 142.335C136.308 142.059 136.149 141.723 136.035 141.327C135.921 140.925 135.864 140.466 135.864 139.95C135.864 139.41 135.93 138.885 136.062 138.375C136.2 137.859 136.392 137.373 136.638 136.917C136.89 136.461 137.19 136.044 137.538 135.666C137.886 135.282 138.273 134.952 138.699 134.676C139.131 134.394 139.593 134.178 140.085 134.028C140.577 133.872 141.093 133.794 141.633 133.794C142.023 133.794 142.401 133.827 142.767 133.893C143.139 133.953 143.505 134.061 143.865 134.217L142.776 143.037H141.948C141.738 143.037 141.594 142.983 141.516 142.875C141.444 142.767 141.408 142.635 141.408 142.479L141.579 140.634ZM155.792 135.909C155.564 135.585 155.288 135.36 154.964 135.234C154.646 135.102 154.322 135.036 153.992 135.036C153.518 135.036 153.092 135.177 152.714 135.459C152.336 135.741 152.012 136.107 151.742 136.557C151.478 137.001 151.274 137.499 151.13 138.051C150.986 138.603 150.914 139.146 150.914 139.68C150.914 140.394 151.04 140.94 151.292 141.318C151.55 141.69 151.916 141.876 152.39 141.876C152.678 141.876 152.969 141.786 153.263 141.606C153.557 141.426 153.839 141.177 154.109 140.859C154.385 140.535 154.64 140.154 154.874 139.716C155.114 139.278 155.321 138.798 155.495 138.276L155.792 135.909ZM158.114 129.78L156.485 143.037H155.648C155.438 143.037 155.297 142.983 155.225 142.875C155.153 142.767 155.117 142.635 155.117 142.479L155.288 140.562C155.06 140.958 154.811 141.315 154.541 141.633C154.271 141.951 153.986 142.224 153.686 142.452C153.392 142.68 153.083 142.857 152.759 142.983C152.441 143.103 152.117 143.163 151.787 143.163C151.007 143.163 150.401 142.881 149.969 142.317C149.537 141.747 149.321 140.922 149.321 139.842C149.321 139.35 149.372 138.858 149.474 138.366C149.576 137.874 149.72 137.403 149.906 136.953C150.098 136.503 150.326 136.086 150.59 135.702C150.86 135.312 151.16 134.976 151.49 134.694C151.82 134.412 152.174 134.19 152.552 134.028C152.936 133.866 153.338 133.785 153.758 133.785C154.208 133.785 154.616 133.875 154.982 134.055C155.354 134.229 155.669 134.478 155.927 134.802L156.548 129.78H158.114ZM163.52 134.946C163.142 134.946 162.794 135.024 162.476 135.18C162.158 135.336 161.876 135.552 161.63 135.828C161.384 136.098 161.174 136.419 161 136.791C160.826 137.157 160.691 137.553 160.595 137.979C161.519 137.865 162.26 137.736 162.818 137.592C163.376 137.442 163.805 137.283 164.105 137.115C164.405 136.941 164.603 136.755 164.699 136.557C164.795 136.359 164.843 136.152 164.843 135.936C164.843 135.828 164.819 135.717 164.771 135.603C164.723 135.483 164.645 135.375 164.537 135.279C164.435 135.183 164.3 135.105 164.132 135.045C163.964 134.979 163.76 134.946 163.52 134.946ZM166.058 141.354C165.752 141.672 165.452 141.945 165.158 142.173C164.864 142.395 164.564 142.581 164.258 142.731C163.958 142.881 163.64 142.989 163.304 143.055C162.974 143.127 162.617 143.163 162.233 143.163C161.711 143.163 161.243 143.076 160.829 142.902C160.415 142.728 160.064 142.482 159.776 142.164C159.488 141.84 159.266 141.45 159.11 140.994C158.954 140.538 158.876 140.028 158.876 139.464C158.876 138.996 158.924 138.531 159.02 138.069C159.122 137.601 159.266 137.157 159.452 136.737C159.644 136.317 159.875 135.927 160.145 135.567C160.421 135.207 160.733 134.898 161.081 134.64C161.435 134.376 161.822 134.169 162.242 134.019C162.668 133.869 163.124 133.794 163.61 133.794C164.072 133.794 164.471 133.86 164.807 133.992C165.143 134.124 165.419 134.292 165.635 134.496C165.851 134.7 166.01 134.925 166.112 135.171C166.22 135.417 166.274 135.651 166.274 135.873C166.274 136.269 166.193 136.635 166.031 136.971C165.869 137.301 165.572 137.601 165.14 137.871C164.708 138.135 164.114 138.366 163.358 138.564C162.602 138.762 161.63 138.921 160.442 139.041C160.442 139.107 160.439 139.173 160.433 139.239C160.433 139.299 160.433 139.362 160.433 139.428C160.433 140.232 160.607 140.847 160.955 141.273C161.309 141.693 161.84 141.903 162.548 141.903C162.836 141.903 163.091 141.873 163.313 141.813C163.541 141.753 163.742 141.681 163.916 141.597C164.096 141.507 164.252 141.411 164.384 141.309C164.522 141.201 164.645 141.105 164.753 141.021C164.867 140.931 164.972 140.856 165.068 140.796C165.164 140.736 165.26 140.706 165.356 140.706C165.47 140.706 165.572 140.757 165.662 140.859L166.058 141.354ZM177.963 135.036C177.831 135.006 177.699 134.988 177.567 134.982C177.441 134.97 177.315 134.964 177.189 134.964C176.829 134.964 176.481 135.024 176.145 135.144C175.809 135.258 175.494 135.42 175.2 135.63C174.906 135.84 174.639 136.092 174.399 136.386C174.159 136.674 173.952 136.992 173.778 137.34C173.61 137.688 173.478 138.06 173.382 138.456C173.286 138.846 173.238 139.248 173.238 139.662C173.238 141.108 173.7 141.831 174.624 141.831C174.918 141.831 175.206 141.741 175.488 141.561C175.77 141.375 176.037 141.12 176.289 140.796C176.547 140.466 176.784 140.079 177 139.635C177.216 139.185 177.408 138.693 177.576 138.159L177.963 135.036ZM177.351 140.634C177.135 141.018 176.901 141.366 176.649 141.678C176.403 141.99 176.139 142.257 175.857 142.479C175.581 142.695 175.287 142.863 174.975 142.983C174.669 143.103 174.351 143.163 174.021 143.163C173.661 143.163 173.334 143.094 173.04 142.956C172.746 142.812 172.494 142.605 172.284 142.335C172.08 142.059 171.921 141.723 171.807 141.327C171.693 140.925 171.636 140.466 171.636 139.95C171.636 139.41 171.702 138.885 171.834 138.375C171.972 137.859 172.164 137.373 172.41 136.917C172.662 136.461 172.962 136.044 173.31 135.666C173.658 135.282 174.045 134.952 174.471 134.676C174.903 134.394 175.365 134.178 175.857 134.028C176.349 133.872 176.865 133.794 177.405 133.794C177.795 133.794 178.173 133.827 178.539 133.893C178.911 133.953 179.277 134.061 179.637 134.217L178.548 143.037H177.72C177.51 143.037 177.366 142.983 177.288 142.875C177.216 142.767 177.18 142.635 177.18 142.479L177.351 140.634ZM187.345 135.909C187.117 135.585 186.841 135.36 186.517 135.234C186.199 135.102 185.875 135.036 185.545 135.036C185.071 135.036 184.645 135.177 184.267 135.459C183.889 135.741 183.565 136.107 183.295 136.557C183.031 137.001 182.827 137.499 182.683 138.051C182.539 138.603 182.467 139.146 182.467 139.68C182.467 140.394 182.593 140.94 182.845 141.318C183.103 141.69 183.469 141.876 183.943 141.876C184.231 141.876 184.522 141.786 184.816 141.606C185.11 141.426 185.392 141.177 185.662 140.859C185.938 140.535 186.193 140.154 186.427 139.716C186.667 139.278 186.874 138.798 187.048 138.276L187.345 135.909ZM189.667 129.78L188.038 143.037H187.201C186.991 143.037 186.85 142.983 186.778 142.875C186.706 142.767 186.67 142.635 186.67 142.479L186.841 140.562C186.613 140.958 186.364 141.315 186.094 141.633C185.824 141.951 185.539 142.224 185.239 142.452C184.945 142.68 184.636 142.857 184.312 142.983C183.994 143.103 183.67 143.163 183.34 143.163C182.56 143.163 181.954 142.881 181.522 142.317C181.09 141.747 180.874 140.922 180.874 139.842C180.874 139.35 180.925 138.858 181.027 138.366C181.129 137.874 181.273 137.403 181.459 136.953C181.651 136.503 181.879 136.086 182.143 135.702C182.413 135.312 182.713 134.976 183.043 134.694C183.373 134.412 183.727 134.19 184.105 134.028C184.489 133.866 184.891 133.785 185.311 133.785C185.761 133.785 186.169 133.875 186.535 134.055C186.907 134.229 187.222 134.478 187.48 134.802L188.101 129.78H189.667ZM190.437 143.037L191.535 133.911H192.327C192.693 133.911 192.876 134.091 192.876 134.451L192.75 136.071C193.2 135.321 193.692 134.754 194.226 134.37C194.766 133.98 195.33 133.785 195.918 133.785C196.536 133.785 196.992 133.998 197.286 134.424C197.58 134.844 197.727 135.447 197.727 136.233C198.177 135.399 198.684 134.784 199.248 134.388C199.818 133.986 200.418 133.785 201.048 133.785C201.828 133.785 202.38 134.085 202.704 134.685C203.028 135.285 203.124 136.134 202.992 137.232L202.308 143.037H200.724L201.417 137.232C201.501 136.518 201.477 135.987 201.345 135.639C201.219 135.291 200.931 135.117 200.481 135.117C200.223 135.117 199.965 135.183 199.707 135.315C199.455 135.441 199.209 135.63 198.969 135.882C198.729 136.128 198.504 136.437 198.294 136.809C198.09 137.175 197.907 137.598 197.745 138.078V138.087L197.16 143.037H195.576L196.26 137.232C196.35 136.518 196.338 135.987 196.224 135.639C196.11 135.291 195.828 135.117 195.378 135.117C195.09 135.117 194.811 135.189 194.541 135.333C194.277 135.477 194.025 135.687 193.785 135.963C193.551 136.233 193.332 136.566 193.128 136.962C192.924 137.352 192.738 137.793 192.57 138.285L192.003 143.037H190.437ZM207.368 133.92L206.27 143.037H204.695L205.793 133.92H207.368ZM207.98 131.058C207.98 131.214 207.947 131.361 207.881 131.499C207.821 131.631 207.737 131.751 207.629 131.859C207.527 131.961 207.407 132.042 207.269 132.102C207.137 132.162 206.999 132.192 206.855 132.192C206.717 132.192 206.582 132.162 206.45 132.102C206.318 132.042 206.201 131.961 206.099 131.859C206.003 131.751 205.925 131.631 205.865 131.499C205.805 131.361 205.775 131.214 205.775 131.058C205.775 130.902 205.805 130.755 205.865 130.617C205.925 130.479 206.006 130.359 206.108 130.257C206.21 130.149 206.327 130.065 206.459 130.005C206.591 129.939 206.726 129.906 206.864 129.906C207.008 129.906 207.146 129.936 207.278 129.996C207.416 130.056 207.536 130.14 207.638 130.248C207.74 130.35 207.821 130.473 207.881 130.617C207.947 130.755 207.98 130.902 207.98 131.058ZM211.049 136.224C211.535 135.42 212.084 134.814 212.696 134.406C213.308 133.992 213.938 133.785 214.586 133.785C214.97 133.785 215.306 133.863 215.594 134.019C215.888 134.169 216.125 134.391 216.305 134.685C216.491 134.979 216.617 135.342 216.683 135.774C216.749 136.2 216.749 136.686 216.683 137.232L215.999 143.037H214.406L215.09 137.232C215.174 136.512 215.129 135.981 214.955 135.639C214.781 135.291 214.46 135.117 213.992 135.117C213.704 135.117 213.41 135.195 213.11 135.351C212.816 135.507 212.531 135.729 212.255 136.017C211.979 136.305 211.721 136.653 211.481 137.061C211.247 137.463 211.046 137.913 210.878 138.411L210.356 143.037H208.754L209.852 133.911H210.644C211.004 133.911 211.184 134.091 211.184 134.451L211.049 136.224ZM221.062 133.92L219.964 143.037H218.389L219.487 133.92H221.062ZM221.674 131.058C221.674 131.214 221.641 131.361 221.575 131.499C221.515 131.631 221.431 131.751 221.323 131.859C221.221 131.961 221.101 132.042 220.963 132.102C220.831 132.162 220.693 132.192 220.549 132.192C220.411 132.192 220.276 132.162 220.144 132.102C220.012 132.042 219.895 131.961 219.793 131.859C219.697 131.751 219.619 131.631 219.559 131.499C219.499 131.361 219.469 131.214 219.469 131.058C219.469 130.902 219.499 130.755 219.559 130.617C219.619 130.479 219.7 130.359 219.802 130.257C219.904 130.149 220.021 130.065 220.153 130.005C220.285 129.939 220.42 129.906 220.558 129.906C220.702 129.906 220.84 129.936 220.972 129.996C221.11 130.056 221.23 130.14 221.332 130.248C221.434 130.35 221.515 130.473 221.575 130.617C221.641 130.755 221.674 130.902 221.674 131.058ZM228.324 135.378C228.276 135.45 228.228 135.504 228.18 135.54C228.132 135.57 228.072 135.585 228 135.585C227.916 135.585 227.823 135.552 227.721 135.486C227.625 135.42 227.505 135.348 227.361 135.27C227.223 135.186 227.052 135.111 226.848 135.045C226.644 134.973 226.398 134.937 226.11 134.937C225.84 134.937 225.594 134.976 225.372 135.054C225.15 135.126 224.958 135.228 224.796 135.36C224.64 135.492 224.517 135.648 224.427 135.828C224.343 136.002 224.301 136.188 224.301 136.386C224.301 136.668 224.394 136.893 224.58 137.061C224.766 137.229 225 137.376 225.282 137.502C225.564 137.622 225.867 137.739 226.191 137.853C226.515 137.967 226.818 138.111 227.1 138.285C227.382 138.459 227.616 138.681 227.802 138.951C227.988 139.221 228.081 139.572 228.081 140.004C228.081 140.424 227.997 140.826 227.829 141.21C227.667 141.594 227.43 141.933 227.118 142.227C226.812 142.515 226.44 142.746 226.002 142.92C225.57 143.094 225.084 143.181 224.544 143.181C223.962 143.181 223.446 143.079 222.996 142.875C222.552 142.665 222.189 142.398 221.907 142.074L222.303 141.462C222.357 141.384 222.414 141.324 222.474 141.282C222.54 141.24 222.624 141.219 222.726 141.219C222.822 141.219 222.918 141.261 223.014 141.345C223.11 141.429 223.23 141.525 223.374 141.633C223.518 141.735 223.698 141.828 223.914 141.912C224.136 141.996 224.415 142.038 224.751 142.038C225.045 142.038 225.309 141.993 225.543 141.903C225.783 141.813 225.984 141.693 226.146 141.543C226.314 141.393 226.44 141.219 226.524 141.021C226.614 140.817 226.659 140.601 226.659 140.373C226.659 140.067 226.566 139.824 226.38 139.644C226.194 139.464 225.96 139.314 225.678 139.194C225.396 139.074 225.093 138.963 224.769 138.861C224.445 138.753 224.142 138.618 223.86 138.456C223.578 138.288 223.344 138.072 223.158 137.808C222.972 137.544 222.879 137.193 222.879 136.755C222.879 136.371 222.954 136.002 223.104 135.648C223.26 135.288 223.482 134.97 223.77 134.694C224.058 134.418 224.406 134.199 224.814 134.037C225.228 133.869 225.693 133.785 226.209 133.785C226.755 133.785 227.235 133.878 227.649 134.064C228.069 134.244 228.429 134.49 228.729 134.802L228.324 135.378ZM230.374 141.318C230.374 141.282 230.374 141.237 230.374 141.183C230.374 141.123 230.377 141.039 230.383 140.931C230.395 140.823 230.41 140.682 230.428 140.508C230.452 140.334 230.482 140.106 230.518 139.824L231.076 135.261H230.059C229.975 135.261 229.906 135.234 229.852 135.18C229.804 135.12 229.786 135.03 229.798 134.91L229.87 134.271L231.274 134.082L231.958 131.265C231.988 131.175 232.033 131.103 232.093 131.049C232.159 130.989 232.24 130.959 232.336 130.959H233.173L232.786 134.1H235.18L235.045 135.261H232.642L232.093 139.743C232.063 139.989 232.039 140.187 232.021 140.337C232.003 140.487 231.988 140.607 231.976 140.697C231.97 140.787 231.964 140.85 231.958 140.886C231.958 140.922 231.958 140.949 231.958 140.967C231.958 141.273 232.03 141.501 232.174 141.651C232.318 141.795 232.51 141.867 232.75 141.867C232.912 141.867 233.05 141.846 233.164 141.804C233.284 141.756 233.389 141.705 233.479 141.651C233.569 141.597 233.644 141.549 233.704 141.507C233.764 141.459 233.815 141.435 233.857 141.435C233.911 141.435 233.95 141.447 233.974 141.471C234.004 141.495 234.031 141.534 234.055 141.588L234.397 142.353C234.103 142.611 233.767 142.815 233.389 142.965C233.017 143.109 232.642 143.181 232.264 143.181C231.682 143.181 231.223 143.022 230.887 142.704C230.557 142.386 230.386 141.924 230.374 141.318ZM238.321 136.458C238.561 135.948 238.819 135.507 239.095 135.135C239.377 134.757 239.671 134.463 239.977 134.253C240.283 134.037 240.598 133.908 240.922 133.866C241.246 133.818 241.576 133.866 241.912 134.01L241.624 135.549C240.844 135.237 240.154 135.351 239.554 135.891C238.96 136.431 238.477 137.406 238.105 138.816L237.601 143.037H236.035L237.133 133.911H237.925C238.291 133.911 238.474 134.091 238.474 134.451L238.321 136.458ZM247.941 135.036C247.809 135.006 247.677 134.988 247.545 134.982C247.419 134.97 247.293 134.964 247.167 134.964C246.807 134.964 246.459 135.024 246.123 135.144C245.787 135.258 245.472 135.42 245.178 135.63C244.884 135.84 244.617 136.092 244.377 136.386C244.137 136.674 243.93 136.992 243.756 137.34C243.588 137.688 243.456 138.06 243.36 138.456C243.264 138.846 243.216 139.248 243.216 139.662C243.216 141.108 243.678 141.831 244.602 141.831C244.896 141.831 245.184 141.741 245.466 141.561C245.748 141.375 246.015 141.12 246.267 140.796C246.525 140.466 246.762 140.079 246.978 139.635C247.194 139.185 247.386 138.693 247.554 138.159L247.941 135.036ZM247.329 140.634C247.113 141.018 246.879 141.366 246.627 141.678C246.381 141.99 246.117 142.257 245.835 142.479C245.559 142.695 245.265 142.863 244.953 142.983C244.647 143.103 244.329 143.163 243.999 143.163C243.639 143.163 243.312 143.094 243.018 142.956C242.724 142.812 242.472 142.605 242.262 142.335C242.058 142.059 241.899 141.723 241.785 141.327C241.671 140.925 241.614 140.466 241.614 139.95C241.614 139.41 241.68 138.885 241.812 138.375C241.95 137.859 242.142 137.373 242.388 136.917C242.64 136.461 242.94 136.044 243.288 135.666C243.636 135.282 244.023 134.952 244.449 134.676C244.881 134.394 245.343 134.178 245.835 134.028C246.327 133.872 246.843 133.794 247.383 133.794C247.773 133.794 248.151 133.827 248.517 133.893C248.889 133.953 249.255 134.061 249.615 134.217L248.526 143.037H247.698C247.488 143.037 247.344 142.983 247.266 142.875C247.194 142.767 247.158 142.635 247.158 142.479L247.329 140.634ZM257.638 135.648C257.596 135.696 257.548 135.735 257.494 135.765C257.446 135.795 257.389 135.81 257.323 135.81C257.239 135.81 257.155 135.774 257.071 135.702C256.993 135.624 256.888 135.54 256.756 135.45C256.624 135.354 256.459 135.27 256.261 135.198C256.069 135.12 255.82 135.081 255.514 135.081C255.1 135.081 254.71 135.195 254.344 135.423C253.978 135.645 253.657 135.951 253.381 136.341C253.105 136.731 252.886 137.193 252.724 137.727C252.568 138.261 252.49 138.834 252.49 139.446C252.49 139.818 252.532 140.157 252.616 140.463C252.7 140.763 252.826 141.021 252.994 141.237C253.162 141.447 253.366 141.612 253.606 141.732C253.852 141.846 254.137 141.903 254.461 141.903C254.863 141.903 255.199 141.843 255.469 141.723C255.745 141.603 255.976 141.474 256.162 141.336C256.348 141.192 256.504 141.06 256.63 140.94C256.762 140.82 256.891 140.76 257.017 140.76C257.131 140.76 257.233 140.811 257.323 140.913L257.719 141.399C257.437 141.711 257.167 141.975 256.909 142.191C256.651 142.407 256.393 142.584 256.135 142.722C255.883 142.854 255.622 142.956 255.352 143.028C255.088 143.094 254.806 143.136 254.506 143.154L254.29 143.721C254.746 143.823 255.076 143.967 255.28 144.153C255.49 144.345 255.595 144.579 255.595 144.855C255.595 145.071 255.544 145.266 255.442 145.44C255.346 145.614 255.208 145.761 255.028 145.881C254.848 146.001 254.635 146.091 254.389 146.151C254.143 146.217 253.876 146.25 253.588 146.25C253.36 146.25 253.147 146.223 252.949 146.169C252.751 146.121 252.571 146.055 252.409 145.971L252.625 145.476C252.667 145.368 252.742 145.314 252.85 145.314C252.886 145.314 252.922 145.323 252.958 145.341C253 145.365 253.048 145.389 253.102 145.413C253.156 145.443 253.222 145.467 253.3 145.485C253.378 145.509 253.474 145.521 253.588 145.521C253.828 145.521 254.011 145.464 254.137 145.35C254.263 145.236 254.326 145.092 254.326 144.918C254.326 144.714 254.218 144.567 254.002 144.477C253.792 144.393 253.492 144.324 253.102 144.27L253.606 143.127C253.162 143.067 252.769 142.938 252.427 142.74C252.091 142.536 251.806 142.275 251.572 141.957C251.344 141.633 251.17 141.258 251.05 140.832C250.936 140.406 250.879 139.941 250.879 139.437C250.879 138.699 250.993 137.991 251.221 137.313C251.455 136.635 251.779 136.035 252.193 135.513C252.607 134.991 253.099 134.574 253.669 134.262C254.245 133.95 254.872 133.794 255.55 133.794C256.156 133.794 256.663 133.902 257.071 134.118C257.479 134.328 257.836 134.637 258.142 135.045L257.638 135.648ZM265.185 135.036C265.053 135.006 264.921 134.988 264.789 134.982C264.663 134.97 264.537 134.964 264.411 134.964C264.051 134.964 263.703 135.024 263.367 135.144C263.031 135.258 262.716 135.42 262.422 135.63C262.128 135.84 261.861 136.092 261.621 136.386C261.381 136.674 261.174 136.992 261 137.34C260.832 137.688 260.7 138.06 260.604 138.456C260.508 138.846 260.46 139.248 260.46 139.662C260.46 141.108 260.922 141.831 261.846 141.831C262.14 141.831 262.428 141.741 262.71 141.561C262.992 141.375 263.259 141.12 263.511 140.796C263.769 140.466 264.006 140.079 264.222 139.635C264.438 139.185 264.63 138.693 264.798 138.159L265.185 135.036ZM264.573 140.634C264.357 141.018 264.123 141.366 263.871 141.678C263.625 141.99 263.361 142.257 263.079 142.479C262.803 142.695 262.509 142.863 262.197 142.983C261.891 143.103 261.573 143.163 261.243 143.163C260.883 143.163 260.556 143.094 260.262 142.956C259.968 142.812 259.716 142.605 259.506 142.335C259.302 142.059 259.143 141.723 259.029 141.327C258.915 140.925 258.858 140.466 258.858 139.95C258.858 139.41 258.924 138.885 259.056 138.375C259.194 137.859 259.386 137.373 259.632 136.917C259.884 136.461 260.184 136.044 260.532 135.666C260.88 135.282 261.267 134.952 261.693 134.676C262.125 134.394 262.587 134.178 263.079 134.028C263.571 133.872 264.087 133.794 264.627 133.794C265.017 133.794 265.395 133.827 265.761 133.893C266.133 133.953 266.499 134.061 266.859 134.217L265.77 143.037H264.942C264.732 143.037 264.588 142.983 264.51 142.875C264.438 142.767 264.402 142.635 264.402 142.479L264.573 140.634ZM265.536 131.112C265.938 131.112 266.175 130.854 266.247 130.338H267.147C267.117 130.62 267.054 130.881 266.958 131.121C266.862 131.355 266.739 131.556 266.589 131.724C266.439 131.892 266.268 132.024 266.076 132.12C265.89 132.21 265.686 132.255 265.464 132.255C265.272 132.255 265.095 132.213 264.933 132.129C264.777 132.039 264.63 131.943 264.492 131.841C264.354 131.739 264.222 131.646 264.096 131.562C263.976 131.472 263.853 131.427 263.727 131.427C263.325 131.427 263.091 131.691 263.025 132.219H262.107C262.137 131.931 262.2 131.67 262.296 131.436C262.398 131.196 262.524 130.992 262.674 130.824C262.824 130.65 262.995 130.518 263.187 130.428C263.379 130.332 263.583 130.284 263.799 130.284C263.997 130.284 264.174 130.329 264.33 130.419C264.486 130.503 264.633 130.596 264.771 130.698C264.909 130.8 265.038 130.896 265.158 130.986C265.284 131.07 265.41 131.112 265.536 131.112ZM271.679 141.912C272.117 141.912 272.513 141.792 272.867 141.552C273.227 141.312 273.533 140.994 273.785 140.598C274.043 140.196 274.241 139.734 274.379 139.212C274.517 138.69 274.586 138.144 274.586 137.574C274.586 136.734 274.418 136.104 274.082 135.684C273.752 135.258 273.275 135.045 272.651 135.045C272.207 135.045 271.805 135.165 271.445 135.405C271.091 135.639 270.788 135.954 270.536 136.35C270.284 136.746 270.089 137.205 269.951 137.727C269.813 138.249 269.744 138.795 269.744 139.365C269.744 140.205 269.909 140.841 270.239 141.273C270.569 141.699 271.049 141.912 271.679 141.912ZM271.526 143.163C271.028 143.163 270.572 143.079 270.158 142.911C269.744 142.737 269.387 142.488 269.087 142.164C268.787 141.84 268.553 141.444 268.385 140.976C268.217 140.508 268.133 139.974 268.133 139.374C268.133 138.606 268.253 137.883 268.493 137.205C268.733 136.527 269.063 135.936 269.483 135.432C269.903 134.922 270.395 134.52 270.959 134.226C271.529 133.932 272.141 133.785 272.795 133.785C273.293 133.785 273.749 133.872 274.163 134.046C274.577 134.214 274.934 134.46 275.234 134.784C275.534 135.108 275.768 135.504 275.936 135.972C276.104 136.44 276.188 136.971 276.188 137.565C276.188 138.327 276.068 139.047 275.828 139.725C275.588 140.403 275.258 140.997 274.838 141.507C274.424 142.017 273.932 142.422 273.362 142.722C272.792 143.016 272.18 143.163 271.526 143.163Z" fill="#333399"/>
<path d="M48.9167 48.6287C43.2429 48.8957 38.4706 49.4031 34.5996 50.1508C30.7287 50.8451 27.6267 51.7531 25.2935 52.8746C22.9604 53.9962 21.29 55.3047 20.2825 56.8002C19.275 58.2956 18.7713 59.9246 18.7713 61.6871C18.7713 65.1587 19.7788 67.6422 21.7938 69.1376C23.8618 70.6331 26.5396 71.3808 29.8273 71.3808C33.8573 71.3808 37.3305 70.6598 40.2469 69.2177C43.2164 67.7223 46.1063 65.4791 48.9167 62.4882V48.6287ZM3.89743 12.9783C13.2831 4.32611 24.5777 0 37.7812 0C42.5536 0 46.8222 0.80113 50.5871 2.40339C54.3519 3.95225 57.5335 6.14201 60.1318 8.97267C62.7301 11.7499 64.692 15.088 66.0177 18.9868C67.3964 22.8856 68.0857 27.1583 68.0857 31.8049V83.7182H59.1773C57.3214 83.7182 55.8897 83.4512 54.8822 82.9171C53.8747 82.3296 53.0793 81.1813 52.496 79.4722L50.7461 73.5438C48.6781 75.4131 46.6631 77.0688 44.7011 78.5108C42.7392 79.8995 40.6977 81.0745 38.5766 82.0358C36.4556 82.9972 34.1754 83.7182 31.7362 84.1989C29.35 84.733 26.6987 85 23.7823 85C20.3356 85 17.154 84.546 14.2376 83.6381C11.3211 82.6767 8.80236 81.2614 6.68131 79.3921C4.56026 77.5228 2.91644 75.1995 1.74987 72.4222C0.583289 69.645 0 66.4138 0 62.7286C0 60.6456 0.344671 58.5894 1.03401 56.5599C1.72335 54.4769 2.83691 52.5008 4.37467 50.6315C5.96545 48.7622 8.00697 46.9997 10.4992 45.344C12.9914 43.6883 16.0404 42.2463 19.6462 41.0179C23.305 39.7895 27.5471 38.8014 32.3725 38.0537C37.1979 37.2526 42.7127 36.7719 48.9167 36.6117V31.8049C48.9167 26.3038 47.7502 22.2447 45.417 19.6277C43.0838 16.9573 39.7167 15.6221 35.3155 15.6221C32.1339 15.6221 29.4826 15.9959 27.3616 16.7436C25.2935 17.4914 23.4641 18.3459 21.8733 19.3073C20.2825 20.2152 18.8243 21.043 17.4987 21.7908C16.226 22.5385 14.7943 22.9123 13.2035 22.9123C11.8249 22.9123 10.6583 22.5652 9.70381 21.8709C8.74933 21.1232 7.98045 20.2686 7.39716 19.3073L3.89743 12.9783Z" fill="#333399"/>
<path d="M86.5886 83.7182V1.52215H98.599C101.144 1.52215 102.815 2.72385 103.61 5.12724L104.883 11.2158C106.314 9.61357 107.799 8.14483 109.337 6.80962C110.928 5.4744 112.598 4.32611 114.348 3.36475C116.151 2.4034 118.06 1.65567 120.075 1.12159C122.143 0.53409 124.396 0.240341 126.836 0.240341C131.979 0.240341 136.195 1.65567 139.482 4.48634C142.823 7.26359 145.315 10.9755 146.959 15.6221C148.232 12.8982 149.822 10.5749 151.731 8.65222C153.64 6.6761 155.735 5.07383 158.015 3.84543C160.295 2.61703 162.708 1.70908 165.253 1.12159C167.851 0.53409 170.45 0.240341 173.048 0.240341C177.555 0.240341 181.559 0.934655 185.058 2.32328C188.558 3.71191 191.501 5.74144 193.887 8.41188C196.273 11.0823 198.076 14.3402 199.296 18.1857C200.569 22.0311 201.205 26.4373 201.205 31.4043V57.0138H181.559V31.4043C181.559 26.1703 180.419 22.2447 178.138 19.6277C175.858 16.9573 172.518 15.6221 168.116 15.6221C166.101 15.6221 164.219 15.9692 162.469 16.6635C160.772 17.3578 159.261 18.3726 157.935 19.7078C156.663 20.9896 155.655 22.6186 154.913 24.5947C154.171 26.5708 153.799 28.8407 153.799 31.4043V83.7182H134.074V31.4043C134.074 25.9032 132.96 21.8976 130.733 19.3874C128.559 16.8772 125.351 15.6221 121.109 15.6221C118.245 15.6221 115.567 16.3431 113.075 17.7851C110.636 19.1737 108.356 21.0965 106.235 23.5533V83.7182H86.5886Z" fill="#333399"/>
<path d="M269.671 17.5448C269.141 18.3993 268.584 19.0135 268.001 19.3874C267.417 19.7078 266.675 19.8681 265.773 19.8681C264.819 19.8681 263.785 19.601 262.671 19.0669C261.611 18.5328 260.365 17.9453 258.933 17.3044C257.501 16.6101 255.858 15.9959 254.002 15.4618C252.199 14.9277 250.051 14.6607 247.559 14.6607C243.688 14.6607 240.639 15.4885 238.412 17.1442C236.238 18.7999 235.151 20.9629 235.151 23.6334C235.151 25.3959 235.708 26.8913 236.821 28.1197C237.988 29.2947 239.499 30.3362 241.355 31.2441C243.264 32.1521 245.411 32.9799 247.798 33.7276C250.184 34.4219 252.596 35.1964 255.036 36.0509C257.528 36.9054 259.967 37.8935 262.353 39.0151C264.739 40.0833 266.86 41.4719 268.716 43.181C270.625 44.8366 272.137 46.8395 273.25 49.1894C274.417 51.5394 275 54.3701 275 57.6814C275 61.6337 274.284 65.2922 272.852 68.6569C271.474 71.9683 269.406 74.8523 266.648 77.3091C263.891 79.7125 260.471 81.6085 256.388 82.9972C252.358 84.3324 247.691 85 242.389 85C239.578 85 236.821 84.733 234.117 84.1989C231.465 83.7182 228.894 83.0239 226.401 82.1159C223.962 81.208 221.682 80.1398 219.561 78.9114C217.493 77.683 215.664 76.3478 214.073 74.9058L218.607 67.3751C219.19 66.4672 219.879 65.7729 220.675 65.2922C221.47 64.8115 222.477 64.5712 223.697 64.5712C224.917 64.5712 226.057 64.9183 227.117 65.6126C228.231 66.3069 229.503 67.0547 230.935 67.8558C232.367 68.6569 234.037 69.4047 235.946 70.099C237.908 70.7933 240.374 71.1404 243.343 71.1404C245.676 71.1404 247.665 70.8734 249.309 70.3393C251.006 69.7518 252.384 69.0041 253.445 68.0961C254.558 67.1882 255.354 66.1467 255.831 64.9717C256.361 63.7433 256.626 62.4882 256.626 61.2064C256.626 59.2837 256.043 57.7081 254.877 56.4797C253.763 55.2513 252.252 54.1832 250.343 53.2752C248.487 52.3673 246.339 51.5661 243.9 50.8718C241.514 50.1241 239.048 49.323 236.503 48.4684C234.011 47.6139 231.545 46.6258 229.106 45.5042C226.72 44.3293 224.572 42.8605 222.663 41.098C220.807 39.3355 219.296 37.1725 218.129 34.6089C217.016 32.0452 216.459 28.9475 216.459 25.3157C216.459 21.951 217.122 18.7465 218.447 15.7022C219.773 12.6579 221.709 10.0141 224.254 7.77097C226.852 5.4744 230.06 3.6585 233.878 2.32328C237.749 0.934655 242.203 0.240341 247.241 0.240341C252.862 0.240341 257.979 1.17499 262.592 3.0443C267.205 4.9136 271.05 7.37041 274.125 10.4147L269.671 17.5448Z" fill="#333399"/>
<circle cx="191.5" cy="74.5" r="10.5" fill="#333399"/>
</svg>
