<svg width="377" height="50" viewBox="0 0 377 50" fill="none" xmlns="http://www.w3.org/2000/svg">
<path d="M184.279 16.3301L183.199 10.9019C183.154 10.6533 183.103 10.3645 183.044 10.0355C182.985 9.70654 182.926 9.34832 182.868 8.96085C182.721 9.34832 182.577 9.70654 182.437 10.0355C182.298 10.3645 182.173 10.6569 182.062 10.9128L179.647 16.3301H184.279ZM188.437 22.2956H186.221C185.971 22.2956 185.776 22.2372 185.636 22.1202C185.504 21.9959 185.408 21.8387 185.349 21.6486L184.687 18.3369H178.743L177.265 21.6486C177.184 21.8168 177.051 21.9667 176.868 22.0982C176.691 22.2298 176.485 22.2956 176.25 22.2956H174L181.71 6.43864H184.632L188.437 22.2956Z" fill="white"/>
<path d="M197.198 13.6653C196.948 13.3948 196.661 13.2047 196.338 13.0951C196.014 12.9854 195.694 12.9306 195.378 12.9306C194.893 12.9306 194.452 13.0805 194.055 13.3802C193.658 13.6799 193.316 14.0711 193.029 14.5536C192.75 15.0361 192.533 15.5807 192.378 16.1875C192.224 16.787 192.147 17.3901 192.147 17.9969C192.147 18.7865 192.275 19.375 192.533 19.7625C192.797 20.1426 193.161 20.3327 193.625 20.3327C193.919 20.3327 194.22 20.234 194.529 20.0366C194.838 19.8319 195.136 19.5541 195.422 19.2032C195.709 18.845 195.974 18.4246 196.216 17.9421C196.466 17.4596 196.68 16.9405 196.856 16.3849L197.198 13.6653ZM200.827 6L198.797 22.2956H197.353C197.007 22.2956 196.772 22.2116 196.647 22.0434C196.529 21.868 196.47 21.6523 196.47 21.3964L196.569 19.8283C196.297 20.2304 196.007 20.5959 195.698 20.9249C195.389 21.2465 195.066 21.5207 194.728 21.7473C194.389 21.974 194.036 22.1494 193.669 22.2737C193.308 22.398 192.937 22.4601 192.555 22.4601C192.084 22.4601 191.658 22.3761 191.275 22.2079C190.893 22.0325 190.566 21.7729 190.294 21.4293C190.022 21.0857 189.812 20.6507 189.665 20.1244C189.518 19.598 189.444 18.9766 189.444 18.2601C189.444 17.6241 189.511 17.0027 189.643 16.3959C189.775 15.7818 189.963 15.2006 190.205 14.6523C190.448 14.104 190.735 13.5995 191.066 13.1389C191.404 12.6784 191.779 12.2799 192.191 11.9436C192.603 11.6073 193.04 11.3442 193.503 11.1541C193.974 10.964 194.459 10.869 194.959 10.869C195.466 10.869 195.926 10.9603 196.338 11.1431C196.75 11.3259 197.11 11.5781 197.419 11.8998L198.158 6H200.827Z" fill="white"/>
<path d="M201.324 22.2956L202.692 11.0334H204.082C204.369 11.0334 204.589 11.1029 204.744 11.2418C204.905 11.3807 204.986 11.6037 204.986 11.9107L204.931 13.1499C205.438 12.3823 205.99 11.812 206.586 11.4392C207.181 11.059 207.802 10.869 208.449 10.869C209.141 10.869 209.688 11.0992 210.093 11.5598C210.497 12.0204 210.733 12.6857 210.799 13.5556C211.328 12.6345 211.913 11.9583 212.552 11.5269C213.199 11.0883 213.902 10.869 214.659 10.869C215.137 10.869 215.556 10.964 215.916 11.1541C216.277 11.3442 216.571 11.622 216.799 11.9875C217.027 12.3457 217.181 12.7917 217.262 13.3254C217.343 13.8517 217.339 14.4549 217.251 15.1348L216.402 22.2956H213.711L214.56 15.1348C214.655 14.4037 214.633 13.881 214.494 13.5666C214.361 13.2449 214.089 13.0841 213.677 13.0841C213.398 13.0841 213.126 13.1572 212.861 13.3034C212.597 13.4496 212.343 13.6617 212.1 13.9395C211.865 14.2173 211.644 14.5572 211.438 14.9593C211.24 15.3614 211.063 15.8147 210.909 16.3191L210.203 22.2956H207.512L208.372 15.1348C208.461 14.4037 208.442 13.881 208.317 13.5666C208.192 13.2449 207.92 13.0841 207.501 13.0841C207.207 13.0841 206.924 13.1609 206.652 13.3144C206.387 13.4679 206.133 13.6909 205.891 13.9833C205.655 14.2684 205.435 14.6194 205.229 15.0361C205.03 15.4455 204.854 15.9061 204.699 16.4178L203.994 22.2956H201.324Z" fill="white"/>
<path d="M222.963 11.0444L221.607 22.2956H218.927L220.283 11.0444H222.963ZM223.658 7.76554C223.658 7.99949 223.607 8.21881 223.504 8.42351C223.408 8.62821 223.28 8.80732 223.118 8.96085C222.956 9.11438 222.772 9.23866 222.566 9.3337C222.361 9.42143 222.147 9.46529 221.927 9.46529C221.713 9.46529 221.508 9.42143 221.309 9.3337C221.111 9.23866 220.934 9.11438 220.78 8.96085C220.625 8.80732 220.5 8.62821 220.405 8.42351C220.316 8.21881 220.272 7.99949 220.272 7.76554C220.272 7.5316 220.32 7.30862 220.416 7.09661C220.511 6.8846 220.636 6.70183 220.791 6.5483C220.945 6.38747 221.122 6.26319 221.32 6.17546C221.526 6.08042 221.736 6.0329 221.949 6.0329C222.169 6.0329 222.383 6.08042 222.588 6.17546C222.794 6.26319 222.975 6.38381 223.129 6.53734C223.291 6.69087 223.419 6.87363 223.515 7.08564C223.611 7.29766 223.658 7.52429 223.658 7.76554Z" fill="white"/>
<path d="M227.808 13.3692C228.382 12.5285 229.018 11.9034 229.716 11.494C230.415 11.0773 231.135 10.869 231.878 10.869C232.348 10.869 232.771 10.964 233.146 11.1541C233.521 11.3442 233.83 11.622 234.073 11.9875C234.315 12.3457 234.484 12.7917 234.58 13.3254C234.683 13.8517 234.69 14.4549 234.602 15.1348L233.753 22.2956H231.029L231.878 15.1348C231.973 14.4037 231.937 13.881 231.768 13.5666C231.598 13.2449 231.29 13.0841 230.841 13.0841C230.54 13.0841 230.231 13.1718 229.915 13.3473C229.598 13.5154 229.293 13.7604 228.999 14.082C228.705 14.3964 228.433 14.7765 228.183 15.2225C227.94 15.6611 227.742 16.1546 227.587 16.7029L226.959 22.2956H224.234L225.591 11.0334H226.97C227.257 11.0334 227.477 11.1029 227.632 11.2418C227.793 11.3807 227.874 11.6037 227.874 11.9107L227.808 13.3692Z" fill="white"/>
<path d="M259.391 6.43864L257.428 22.2956H254.913L256.192 11.9656C256.222 11.7755 256.255 11.5708 256.292 11.3515C256.336 11.1321 256.384 10.9055 256.435 10.6716L250.954 19.7076C250.829 19.9123 250.67 20.0659 250.479 20.1682C250.295 20.2706 250.093 20.3217 249.873 20.3217H249.476C249.255 20.3217 249.06 20.2706 248.891 20.1682C248.729 20.0659 248.612 19.9123 248.538 19.7076L245.251 10.6716C245.244 10.8982 245.233 11.1175 245.218 11.3295C245.211 11.5415 245.196 11.7389 245.174 11.9217L243.917 22.2956H241.391L243.354 6.43864H245.505C245.63 6.43864 245.733 6.44595 245.814 6.46058C245.902 6.46789 245.979 6.48982 246.045 6.52637C246.112 6.55562 246.174 6.60314 246.233 6.66893C246.292 6.72742 246.354 6.80418 246.42 6.89922L249.718 15.9572C249.851 16.3447 249.961 16.7395 250.049 17.1416C250.145 16.9369 250.24 16.7358 250.336 16.5384C250.439 16.341 250.549 16.1473 250.667 15.9572L256.204 6.89922C256.292 6.80418 256.369 6.72742 256.435 6.66893C256.509 6.60314 256.582 6.55562 256.656 6.52637C256.729 6.48982 256.81 6.46789 256.898 6.46058C256.987 6.44595 257.093 6.43864 257.218 6.43864H259.391Z" fill="white"/>
<path d="M264.702 20.3766C265.158 20.3766 265.569 20.2486 265.937 19.9928C266.305 19.7296 266.617 19.3823 266.875 18.951C267.132 18.5123 267.331 18.0042 267.47 17.4267C267.61 16.8491 267.68 16.2423 267.68 15.6063C267.68 14.6925 267.525 14.0235 267.217 13.5995C266.908 13.1682 266.437 12.9525 265.805 12.9525C265.349 12.9525 264.933 13.0805 264.558 13.3363C264.191 13.5922 263.878 13.9395 263.621 14.3781C263.364 14.8094 263.165 15.3139 263.025 15.8914C262.886 16.469 262.816 17.0794 262.816 17.7228C262.816 18.6366 262.97 19.3092 263.279 19.7405C263.588 20.1646 264.062 20.3766 264.702 20.3766ZM264.448 22.4601C263.823 22.4601 263.246 22.3578 262.717 22.1531C262.187 21.9411 261.728 21.634 261.338 21.2319C260.948 20.8298 260.643 20.3364 260.422 19.7515C260.202 19.1666 260.092 18.4977 260.092 17.7447C260.092 16.7724 260.25 15.8658 260.566 15.0251C260.882 14.1844 261.308 13.457 261.845 12.8429C262.389 12.2288 263.022 11.7462 263.742 11.3953C264.463 11.0444 265.231 10.869 266.047 10.869C266.672 10.869 267.25 10.975 267.779 11.187C268.316 11.3917 268.775 11.6951 269.158 12.0972C269.547 12.4992 269.853 12.9927 270.073 13.5776C270.294 14.1624 270.404 14.8314 270.404 15.5844C270.404 16.5494 270.246 17.4523 269.93 18.293C269.614 19.1264 269.183 19.8539 268.639 20.4753C268.103 21.0894 267.474 21.5755 266.753 21.9338C266.033 22.2847 265.264 22.4601 264.448 22.4601Z" fill="white"/>
<path d="M275.178 13.3692C275.752 12.5285 276.388 11.9034 277.086 11.494C277.785 11.0773 278.506 10.869 279.248 10.869C279.719 10.869 280.142 10.964 280.517 11.1541C280.892 11.3442 281.2 11.622 281.443 11.9875C281.686 12.3457 281.855 12.7917 281.95 13.3254C282.053 13.8517 282.061 14.4549 281.973 15.1348L281.123 22.2956H278.399L279.248 15.1348C279.344 14.4037 279.307 13.881 279.138 13.5666C278.969 13.2449 278.66 13.0841 278.211 13.0841C277.91 13.0841 277.601 13.1718 277.285 13.3473C276.969 13.5154 276.664 13.7604 276.37 14.082C276.075 14.3964 275.803 14.7765 275.553 15.2225C275.311 15.6611 275.112 16.1546 274.958 16.7029L274.329 22.2956H271.605L272.961 11.0334H274.34C274.627 11.0334 274.848 11.1029 275.002 11.2418C275.164 11.3807 275.245 11.6037 275.245 11.9107L275.178 13.3692Z" fill="white"/>
<path d="M287.675 11.0444L286.318 22.2956H283.638L284.995 11.0444H287.675ZM288.37 7.76554C288.37 7.99949 288.318 8.21881 288.215 8.42351C288.12 8.62821 287.991 8.80732 287.829 8.96085C287.668 9.11438 287.484 9.23866 287.278 9.3337C287.072 9.42143 286.859 9.46529 286.638 9.46529C286.425 9.46529 286.219 9.42143 286.021 9.3337C285.822 9.23866 285.646 9.11438 285.491 8.96085C285.337 8.80732 285.212 8.62821 285.116 8.42351C285.028 8.21881 284.984 7.99949 284.984 7.76554C284.984 7.5316 285.032 7.30862 285.127 7.09661C285.223 6.8846 285.348 6.70183 285.502 6.5483C285.657 6.38747 285.833 6.26319 286.032 6.17546C286.238 6.08042 286.447 6.0329 286.66 6.0329C286.881 6.0329 287.094 6.08042 287.3 6.17546C287.506 6.26319 287.686 6.38381 287.84 6.53734C288.002 6.69087 288.131 6.87363 288.227 7.08564C288.322 7.29766 288.37 7.52429 288.37 7.76554Z" fill="white"/>
<path d="M289.895 20.0037C289.895 19.9525 289.895 19.8941 289.895 19.8283C289.895 19.7552 289.898 19.6528 289.906 19.5212C289.92 19.3823 289.939 19.2032 289.961 18.9839C289.99 18.7572 290.027 18.4685 290.071 18.1176L290.7 13.0731H289.63C289.497 13.0731 289.387 13.0256 289.299 12.9306C289.218 12.8355 289.192 12.693 289.222 12.5029L289.343 11.4282L291.064 11.1321L291.968 8.06163C292.02 7.91541 292.097 7.8021 292.2 7.72168C292.303 7.64126 292.431 7.60105 292.586 7.60105H294.042L293.6 11.1431H296.336L296.104 13.0731H293.358L292.751 17.975C292.714 18.2747 292.685 18.5123 292.663 18.6878C292.641 18.8632 292.622 19.0022 292.608 19.1045C292.6 19.1995 292.597 19.269 292.597 19.3129C292.597 19.3494 292.597 19.375 292.597 19.3896C292.597 19.6674 292.663 19.8868 292.795 20.0476C292.935 20.2084 293.13 20.2888 293.38 20.2888C293.534 20.2888 293.667 20.2706 293.777 20.234C293.887 20.1901 293.983 20.1463 294.064 20.1024C294.145 20.0586 294.218 20.0183 294.284 19.9818C294.35 19.9379 294.413 19.916 294.472 19.916C294.553 19.916 294.615 19.9379 294.659 19.9818C294.703 20.0183 294.744 20.0768 294.781 20.1572L295.365 21.4732C294.961 21.8022 294.512 22.0507 294.02 22.2189C293.534 22.387 293.038 22.4711 292.531 22.4711C291.729 22.4711 291.093 22.2554 290.622 21.8241C290.159 21.3928 289.917 20.786 289.895 20.0037Z" fill="white"/>
<path d="M301.431 20.3766C301.886 20.3766 302.298 20.2486 302.666 19.9928C303.034 19.7296 303.346 19.3823 303.603 18.951C303.861 18.5123 304.059 18.0042 304.199 17.4267C304.339 16.8491 304.409 16.2423 304.409 15.6063C304.409 14.6925 304.254 14.0235 303.945 13.5995C303.636 13.1682 303.166 12.9525 302.534 12.9525C302.078 12.9525 301.662 13.0805 301.287 13.3363C300.92 13.5922 300.607 13.9395 300.35 14.3781C300.092 14.8094 299.894 15.3139 299.754 15.8914C299.614 16.469 299.545 17.0794 299.545 17.7228C299.545 18.6366 299.699 19.3092 300.008 19.7405C300.317 20.1646 300.791 20.3766 301.431 20.3766ZM301.177 22.4601C300.552 22.4601 299.975 22.3578 299.445 22.1531C298.916 21.9411 298.456 21.634 298.067 21.2319C297.677 20.8298 297.372 20.3364 297.151 19.7515C296.931 19.1666 296.82 18.4977 296.82 17.7447C296.82 16.7724 296.978 15.8658 297.295 15.0251C297.611 14.1844 298.037 13.457 298.574 12.8429C299.118 12.2288 299.75 11.7462 300.471 11.3953C301.192 11.0444 301.96 10.869 302.776 10.869C303.401 10.869 303.978 10.975 304.508 11.187C305.045 11.3917 305.504 11.6951 305.886 12.0972C306.276 12.4992 306.581 12.9927 306.802 13.5776C307.023 14.1624 307.133 14.8314 307.133 15.5844C307.133 16.5494 306.975 17.4523 306.659 18.293C306.342 19.1264 305.912 19.8539 305.368 20.4753C304.831 21.0894 304.203 21.5755 303.482 21.9338C302.761 22.2847 301.993 22.4601 301.177 22.4601Z" fill="white"/>
<path d="M311.907 13.7421C312.194 13.1865 312.499 12.7113 312.823 12.3165C313.153 11.9144 313.495 11.6037 313.848 11.3844C314.201 11.1577 314.565 11.0261 314.94 10.9896C315.315 10.9457 315.69 11.0042 316.065 11.165L315.569 13.753C314.672 13.3802 313.885 13.4716 313.209 14.0272C312.54 14.5828 312.003 15.6758 311.598 17.3061L310.992 22.2956H308.323L309.69 11.0334H311.08C311.367 11.0334 311.587 11.1029 311.742 11.2418C311.903 11.3807 311.984 11.6037 311.984 11.9107L311.907 13.7421Z" fill="white"/>
<path d="M330.474 9.28983C330.371 9.43605 330.268 9.54571 330.165 9.61882C330.07 9.68461 329.949 9.71751 329.801 9.71751C329.654 9.71751 329.504 9.65903 329.349 9.54205C329.195 9.42508 329.011 9.29714 328.798 9.15824C328.585 9.01202 328.331 8.88043 328.037 8.76346C327.743 8.64649 327.39 8.588 326.978 8.588C326.581 8.588 326.228 8.64649 325.919 8.76346C325.61 8.88043 325.349 9.04127 325.136 9.24597C324.93 9.45067 324.772 9.69192 324.662 9.96973C324.559 10.2475 324.507 10.5473 324.507 10.869C324.507 11.2052 324.592 11.4867 324.761 11.7133C324.938 11.9327 325.165 12.1264 325.445 12.2945C325.724 12.4627 326.044 12.6126 326.404 12.7442C326.765 12.8758 327.129 13.0147 327.496 13.1609C327.871 13.3071 328.239 13.4752 328.599 13.6653C328.96 13.8554 329.279 14.0893 329.559 14.3671C329.838 14.6449 330.063 14.9812 330.232 15.376C330.408 15.7635 330.496 16.235 330.496 16.7907C330.496 17.5656 330.36 18.2967 330.088 18.9839C329.816 19.6711 329.43 20.2742 328.93 20.7933C328.43 21.305 327.82 21.7144 327.099 22.0215C326.379 22.3212 325.574 22.4711 324.684 22.4711C324.221 22.4711 323.765 22.4199 323.316 22.3176C322.868 22.2225 322.445 22.0836 322.048 21.9009C321.651 21.7181 321.283 21.4988 320.945 21.2429C320.607 20.987 320.313 20.7019 320.063 20.3875L321.077 19.0277C321.158 18.9254 321.261 18.8413 321.386 18.7755C321.511 18.7097 321.636 18.6768 321.761 18.6768C321.879 18.6768 321.993 18.7134 322.103 18.7865C322.221 18.8596 322.346 18.951 322.478 19.0606C322.618 19.163 322.765 19.28 322.919 19.4116C323.081 19.5358 323.261 19.6528 323.46 19.7625C323.665 19.8648 323.897 19.9525 324.154 20.0257C324.419 20.0988 324.717 20.1353 325.048 20.1353C325.886 20.1353 326.54 19.9014 327.011 19.4335C327.482 18.9656 327.717 18.3186 327.717 17.4925C327.717 17.1269 327.632 16.8272 327.463 16.5933C327.294 16.3593 327.07 16.1619 326.79 16.0011C326.511 15.8403 326.191 15.7014 325.831 15.5844C325.478 15.4601 325.118 15.3322 324.75 15.2006C324.382 15.0617 324.018 14.9045 323.658 14.729C323.305 14.5463 322.989 14.316 322.71 14.0382C322.43 13.753 322.206 13.4058 322.037 12.9964C321.868 12.587 321.783 12.0825 321.783 11.4831C321.783 10.8032 321.908 10.1488 322.158 9.52012C322.415 8.8914 322.779 8.33944 323.25 7.86424C323.728 7.38173 324.302 6.99792 324.971 6.7128C325.647 6.42037 326.408 6.27415 327.254 6.27415C327.688 6.27415 328.103 6.31802 328.5 6.40575C328.904 6.49347 329.279 6.61776 329.625 6.77859C329.971 6.93943 330.287 7.13317 330.574 7.3598C330.868 7.57912 331.121 7.82403 331.335 8.09453L330.474 9.28983Z" fill="white"/>
<path d="M342.493 11.0444L341.125 22.2956H339.746C339.099 22.2956 338.776 21.9849 338.776 21.3635L338.842 20.0695C338.268 20.8737 337.64 21.4732 336.956 21.868C336.279 22.2627 335.577 22.4601 334.849 22.4601C334.379 22.4601 333.956 22.3651 333.581 22.175C333.206 21.9849 332.897 21.7108 332.654 21.3526C332.412 20.987 332.239 20.5374 332.136 20.0037C332.041 19.47 332.037 18.8632 332.125 18.1833L332.974 11.0444H335.699L334.849 18.1833C334.754 18.9217 334.791 19.4518 334.96 19.7734C335.129 20.0878 335.438 20.245 335.886 20.245C336.18 20.245 336.478 20.1646 336.78 20.0037C337.088 19.8429 337.386 19.6126 337.673 19.3129C337.96 19.0131 338.224 18.6549 338.467 18.2382C338.71 17.8142 338.912 17.3426 339.074 16.8236L339.768 11.0444H342.493Z" fill="white"/>
<path d="M347.798 11.0444L346.442 22.2956H343.761L345.118 11.0444H347.798ZM348.493 7.76554C348.493 7.99949 348.442 8.21881 348.339 8.42351C348.243 8.62821 348.114 8.80732 347.953 8.96085C347.791 9.11438 347.607 9.23866 347.401 9.3337C347.195 9.42143 346.982 9.46529 346.761 9.46529C346.548 9.46529 346.342 9.42143 346.144 9.3337C345.945 9.23866 345.769 9.11438 345.614 8.96085C345.46 8.80732 345.335 8.62821 345.239 8.42351C345.151 8.21881 345.107 7.99949 345.107 7.76554C345.107 7.5316 345.155 7.30862 345.25 7.09661C345.346 6.8846 345.471 6.70183 345.625 6.5483C345.78 6.38747 345.956 6.26319 346.155 6.17546C346.361 6.08042 346.57 6.0329 346.784 6.0329C347.004 6.0329 347.217 6.08042 347.423 6.17546C347.629 6.26319 347.809 6.38381 347.964 6.53734C348.125 6.69087 348.254 6.87363 348.35 7.08564C348.445 7.29766 348.493 7.52429 348.493 7.76554Z" fill="white"/>
<path d="M350.018 20.0037C350.018 19.9525 350.018 19.8941 350.018 19.8283C350.018 19.7552 350.021 19.6528 350.029 19.5212C350.043 19.3823 350.062 19.2032 350.084 18.9839C350.113 18.7572 350.15 18.4685 350.194 18.1176L350.823 13.0731H349.753C349.621 13.0731 349.51 13.0256 349.422 12.9306C349.341 12.8355 349.316 12.693 349.345 12.5029L349.466 11.4282L351.187 11.1321L352.091 8.06163C352.143 7.91541 352.22 7.8021 352.323 7.72168C352.426 7.64126 352.554 7.60105 352.709 7.60105H354.165L353.724 11.1431H356.459L356.227 13.0731H353.481L352.874 17.975C352.838 18.2747 352.808 18.5123 352.786 18.6878C352.764 18.8632 352.746 19.0022 352.731 19.1045C352.724 19.1995 352.72 19.269 352.72 19.3129C352.72 19.3494 352.72 19.375 352.72 19.3896C352.72 19.6674 352.786 19.8868 352.918 20.0476C353.058 20.2084 353.253 20.2888 353.503 20.2888C353.657 20.2888 353.79 20.2706 353.9 20.234C354.01 20.1901 354.106 20.1463 354.187 20.1024C354.268 20.0586 354.341 20.0183 354.407 19.9818C354.474 19.9379 354.536 19.916 354.595 19.916C354.676 19.916 354.738 19.9379 354.782 19.9818C354.827 20.0183 354.867 20.0768 354.904 20.1572L355.488 21.4732C355.084 21.8022 354.635 22.0507 354.143 22.2189C353.657 22.387 353.161 22.4711 352.654 22.4711C351.852 22.4711 351.216 22.2554 350.746 21.8241C350.282 21.3928 350.04 20.786 350.018 20.0037Z" fill="white"/>
<path d="M362.8 12.7771C362.432 12.7771 362.091 12.8538 361.774 13.0073C361.458 13.1536 361.171 13.3619 360.914 13.6324C360.664 13.9029 360.443 14.2282 360.252 14.6084C360.068 14.9812 359.921 15.3906 359.811 15.8366C360.723 15.7123 361.454 15.5771 362.006 15.4309C362.565 15.2773 362.995 15.1165 363.296 14.9483C363.598 14.7729 363.796 14.5865 363.892 14.3891C363.995 14.1844 364.046 13.9724 364.046 13.753C364.046 13.6434 364.021 13.5301 363.969 13.4131C363.925 13.2961 363.852 13.1938 363.749 13.106C363.653 13.011 363.524 12.9342 363.363 12.8758C363.208 12.81 363.021 12.7771 362.8 12.7771ZM359.58 17.7118C359.58 19.481 360.333 20.3656 361.841 20.3656C362.164 20.3656 362.451 20.3364 362.701 20.2779C362.951 20.2121 363.168 20.1353 363.352 20.0476C363.543 19.9599 363.712 19.8612 363.859 19.7515C364.013 19.6418 364.153 19.5431 364.278 19.4554C364.41 19.3677 364.539 19.2946 364.664 19.2361C364.789 19.1703 364.925 19.1374 365.072 19.1374C365.16 19.1374 365.245 19.1593 365.326 19.2032C365.414 19.2471 365.491 19.3055 365.557 19.3787L366.252 20.2121C365.863 20.5995 365.48 20.9358 365.105 21.221C364.73 21.5061 364.348 21.74 363.958 21.9228C363.568 22.1056 363.157 22.2408 362.723 22.3285C362.289 22.4163 361.818 22.4601 361.311 22.4601C360.649 22.4601 360.05 22.3505 359.513 22.1311C358.977 21.9045 358.517 21.5902 358.135 21.1881C357.752 20.7787 357.454 20.2888 357.241 19.7186C357.035 19.1411 356.932 18.4977 356.932 17.7886C356.932 17.1964 356.995 16.6152 357.12 16.045C357.252 15.4747 357.44 14.9337 357.682 14.422C357.925 13.9102 358.223 13.4387 358.576 13.0073C358.929 12.576 359.326 12.2032 359.767 11.8888C360.216 11.5744 360.705 11.3295 361.234 11.1541C361.771 10.9786 362.344 10.8909 362.954 10.8909C363.543 10.8909 364.057 10.975 364.499 11.1431C364.947 11.3113 365.318 11.5306 365.613 11.8011C365.914 12.0643 366.138 12.3603 366.285 12.6893C366.432 13.0183 366.506 13.34 366.506 13.6543C366.506 14.1588 366.403 14.6194 366.197 15.0361C365.999 15.4528 365.638 15.8256 365.116 16.1546C364.602 16.4836 363.896 16.7687 362.999 17.01C362.102 17.2439 360.962 17.4303 359.58 17.5692V17.7118Z" fill="white"/>
<path d="M180.093 43.1661C180.489 43.1661 180.84 43.1331 181.146 43.0671C181.452 43.0011 181.722 42.9201 181.956 42.8241C182.19 42.7281 182.388 42.6231 182.55 42.5091C182.718 42.3891 182.862 42.2811 182.982 42.1851C183.108 42.0891 183.213 42.0081 183.297 41.9421C183.381 41.8761 183.456 41.8431 183.522 41.8431C183.576 41.8431 183.621 41.8551 183.657 41.8791C183.693 41.8971 183.723 41.9211 183.747 41.9511L184.332 42.6801C183.768 43.2921 183.117 43.7691 182.379 44.1111C181.647 44.4471 180.792 44.6151 179.814 44.6151C179.04 44.6151 178.347 44.4771 177.735 44.2011C177.129 43.9251 176.613 43.5411 176.187 43.0491C175.767 42.5511 175.443 41.9601 175.215 41.2761C174.993 40.5921 174.882 39.8391 174.882 39.0171C174.882 37.8951 175.056 36.8691 175.404 35.9391C175.752 35.0091 176.229 34.2111 176.835 33.5451C177.447 32.8731 178.164 32.3541 178.986 31.9881C179.808 31.6161 180.693 31.4301 181.641 31.4301C182.097 31.4301 182.511 31.4691 182.883 31.5471C183.255 31.6251 183.594 31.7391 183.9 31.8891C184.206 32.0391 184.482 32.2191 184.728 32.4291C184.98 32.6391 185.214 32.8731 185.43 33.1311L184.854 33.8331C184.806 33.8931 184.752 33.9441 184.692 33.9861C184.632 34.0221 184.557 34.0401 184.467 34.0401C184.359 34.0401 184.245 33.9801 184.125 33.8601C184.005 33.7401 183.84 33.6111 183.63 33.4731C183.426 33.3291 183.159 33.1971 182.829 33.0771C182.505 32.9571 182.082 32.8971 181.56 32.8971C180.858 32.8971 180.204 33.0381 179.598 33.3201C178.998 33.5961 178.476 33.9951 178.032 34.5171C177.588 35.0331 177.237 35.6601 176.979 36.3981C176.727 37.1361 176.601 37.9641 176.601 38.8821C176.601 39.5481 176.688 40.1451 176.862 40.6731C177.036 41.2011 177.276 41.6511 177.582 42.0231C177.894 42.3891 178.263 42.6711 178.689 42.8691C179.115 43.0671 179.583 43.1661 180.093 43.1661ZM189.028 43.3461C189.466 43.3461 189.862 43.2261 190.216 42.9861C190.576 42.7461 190.882 42.4281 191.134 42.0321C191.392 41.6301 191.59 41.1681 191.728 40.6461C191.866 40.1241 191.935 39.5781 191.935 39.0081C191.935 38.1681 191.767 37.5381 191.431 37.1181C191.101 36.6921 190.624 36.4791 190 36.4791C189.556 36.4791 189.154 36.5991 188.794 36.8391C188.44 37.0731 188.137 37.3881 187.885 37.7841C187.633 38.1801 187.438 38.6391 187.3 39.1611C187.162 39.6831 187.093 40.2291 187.093 40.7991C187.093 41.6391 187.258 42.2751 187.588 42.7071C187.918 43.1331 188.398 43.3461 189.028 43.3461ZM188.875 44.5971C188.377 44.5971 187.921 44.5131 187.507 44.3451C187.093 44.1711 186.736 43.9221 186.436 43.5981C186.136 43.2741 185.902 42.8781 185.734 42.4101C185.566 41.9421 185.482 41.4081 185.482 40.8081C185.482 40.0401 185.602 39.3171 185.842 38.6391C186.082 37.9611 186.412 37.3701 186.832 36.8661C187.252 36.3561 187.744 35.9541 188.308 35.6601C188.878 35.3661 189.49 35.2191 190.144 35.2191C190.642 35.2191 191.098 35.3061 191.512 35.4801C191.926 35.6481 192.283 35.8941 192.583 36.2181C192.883 36.5421 193.117 36.9381 193.285 37.4061C193.453 37.8741 193.537 38.4051 193.537 38.9991C193.537 39.7611 193.417 40.4811 193.177 41.1591C192.937 41.8371 192.607 42.4311 192.187 42.9411C191.773 43.4511 191.281 43.8561 190.711 44.1561C190.141 44.4501 189.529 44.5971 188.875 44.5971ZM197.111 37.6581C197.597 36.8541 198.146 36.2481 198.758 35.8401C199.37 35.4261 200 35.2191 200.648 35.2191C201.032 35.2191 201.368 35.2971 201.656 35.4531C201.95 35.6031 202.187 35.8251 202.367 36.1191C202.553 36.4131 202.679 36.7761 202.745 37.2081C202.811 37.6341 202.811 38.1201 202.745 38.6661L202.061 44.4711H200.468L201.152 38.6661C201.236 37.9461 201.191 37.4151 201.017 37.0731C200.843 36.7251 200.522 36.5511 200.054 36.5511C199.766 36.5511 199.472 36.6291 199.172 36.7851C198.878 36.9411 198.593 37.1631 198.317 37.4511C198.041 37.7391 197.783 38.0871 197.543 38.4951C197.309 38.8971 197.108 39.3471 196.94 39.8451L196.418 44.4711H194.816L195.914 35.3451H196.706C197.066 35.3451 197.246 35.5251 197.246 35.8851L197.111 37.6581ZM210.238 36.8121C210.19 36.8841 210.142 36.9381 210.094 36.9741C210.046 37.0041 209.986 37.0191 209.914 37.0191C209.83 37.0191 209.737 36.9861 209.635 36.9201C209.539 36.8541 209.419 36.7821 209.275 36.7041C209.137 36.6201 208.966 36.5451 208.762 36.4791C208.558 36.4071 208.312 36.3711 208.024 36.3711C207.754 36.3711 207.508 36.4101 207.286 36.4881C207.064 36.5601 206.872 36.6621 206.71 36.7941C206.554 36.9261 206.431 37.0821 206.341 37.2621C206.257 37.4361 206.215 37.6221 206.215 37.8201C206.215 38.1021 206.308 38.3271 206.494 38.4951C206.68 38.6631 206.914 38.8101 207.196 38.9361C207.478 39.0561 207.781 39.1731 208.105 39.2871C208.429 39.4011 208.732 39.5451 209.014 39.7191C209.296 39.8931 209.53 40.1151 209.716 40.3851C209.902 40.6551 209.995 41.0061 209.995 41.4381C209.995 41.8581 209.911 42.2601 209.743 42.6441C209.581 43.0281 209.344 43.3671 209.032 43.6611C208.726 43.9491 208.354 44.1801 207.916 44.3541C207.484 44.5281 206.998 44.6151 206.458 44.6151C205.876 44.6151 205.36 44.5131 204.91 44.3091C204.466 44.0991 204.103 43.8321 203.821 43.5081L204.217 42.8961C204.271 42.8181 204.328 42.7581 204.388 42.7161C204.454 42.6741 204.538 42.6531 204.64 42.6531C204.736 42.6531 204.832 42.6951 204.928 42.7791C205.024 42.8631 205.144 42.9591 205.288 43.0671C205.432 43.1691 205.612 43.2621 205.828 43.3461C206.05 43.4301 206.329 43.4721 206.665 43.4721C206.959 43.4721 207.223 43.4271 207.457 43.3371C207.697 43.2471 207.898 43.1271 208.06 42.9771C208.228 42.8271 208.354 42.6531 208.438 42.4551C208.528 42.2511 208.573 42.0351 208.573 41.8071C208.573 41.5011 208.48 41.2581 208.294 41.0781C208.108 40.8981 207.874 40.7481 207.592 40.6281C207.31 40.5081 207.007 40.3971 206.683 40.2951C206.359 40.1871 206.056 40.0521 205.774 39.8901C205.492 39.7221 205.258 39.5061 205.072 39.2421C204.886 38.9781 204.793 38.6271 204.793 38.1891C204.793 37.8051 204.868 37.4361 205.018 37.0821C205.174 36.7221 205.396 36.4041 205.684 36.1281C205.972 35.8521 206.32 35.6331 206.728 35.4711C207.142 35.3031 207.607 35.2191 208.123 35.2191C208.669 35.2191 209.149 35.3121 209.563 35.4981C209.983 35.6781 210.343 35.9241 210.643 36.2361L210.238 36.8121ZM215.114 43.3461C215.552 43.3461 215.948 43.2261 216.302 42.9861C216.662 42.7461 216.968 42.4281 217.22 42.0321C217.478 41.6301 217.676 41.1681 217.814 40.6461C217.952 40.1241 218.021 39.5781 218.021 39.0081C218.021 38.1681 217.853 37.5381 217.517 37.1181C217.187 36.6921 216.71 36.4791 216.086 36.4791C215.642 36.4791 215.24 36.5991 214.88 36.8391C214.526 37.0731 214.223 37.3881 213.971 37.7841C213.719 38.1801 213.524 38.6391 213.386 39.1611C213.248 39.6831 213.179 40.2291 213.179 40.7991C213.179 41.6391 213.344 42.2751 213.674 42.7071C214.004 43.1331 214.484 43.3461 215.114 43.3461ZM214.961 44.5971C214.463 44.5971 214.007 44.5131 213.593 44.3451C213.179 44.1711 212.822 43.9221 212.522 43.5981C212.222 43.2741 211.988 42.8781 211.82 42.4101C211.652 41.9421 211.568 41.4081 211.568 40.8081C211.568 40.0401 211.688 39.3171 211.928 38.6391C212.168 37.9611 212.498 37.3701 212.918 36.8661C213.338 36.3561 213.83 35.9541 214.394 35.6601C214.964 35.3661 215.576 35.2191 216.23 35.2191C216.728 35.2191 217.184 35.3061 217.598 35.4801C218.012 35.6481 218.369 35.8941 218.669 36.2181C218.969 36.5421 219.203 36.9381 219.371 37.4061C219.539 37.8741 219.623 38.4051 219.623 38.9991C219.623 39.7611 219.503 40.4811 219.263 41.1591C219.023 41.8371 218.693 42.4311 218.273 42.9411C217.859 43.4511 217.367 43.8561 216.797 44.1561C216.227 44.4501 215.615 44.5971 214.961 44.5971ZM220.947 44.4711L222.558 31.2141H224.133L222.522 44.4711H220.947ZM231.191 36.4701C231.059 36.4401 230.927 36.4221 230.795 36.4161C230.669 36.4041 230.543 36.3981 230.417 36.3981C230.057 36.3981 229.709 36.4581 229.373 36.5781C229.037 36.6921 228.722 36.8541 228.428 37.0641C228.134 37.2741 227.867 37.5261 227.627 37.8201C227.387 38.1081 227.18 38.4261 227.006 38.7741C226.838 39.1221 226.706 39.4941 226.61 39.8901C226.514 40.2801 226.466 40.6821 226.466 41.0961C226.466 42.5421 226.928 43.2651 227.852 43.2651C228.146 43.2651 228.434 43.1751 228.716 42.9951C228.998 42.8091 229.265 42.5541 229.517 42.2301C229.775 41.9001 230.012 41.5131 230.228 41.0691C230.444 40.6191 230.636 40.1271 230.804 39.5931L231.191 36.4701ZM230.579 42.0681C230.363 42.4521 230.129 42.8001 229.877 43.1121C229.631 43.4241 229.367 43.6911 229.085 43.9131C228.809 44.1291 228.515 44.2971 228.203 44.4171C227.897 44.5371 227.579 44.5971 227.249 44.5971C226.889 44.5971 226.562 44.5281 226.268 44.3901C225.974 44.2461 225.722 44.0391 225.512 43.7691C225.308 43.4931 225.149 43.1571 225.035 42.7611C224.921 42.3591 224.864 41.9001 224.864 41.3841C224.864 40.8441 224.93 40.3191 225.062 39.8091C225.2 39.2931 225.392 38.8071 225.638 38.3511C225.89 37.8951 226.19 37.4781 226.538 37.1001C226.886 36.7161 227.273 36.3861 227.699 36.1101C228.131 35.8281 228.593 35.6121 229.085 35.4621C229.577 35.3061 230.093 35.2281 230.633 35.2281C231.023 35.2281 231.401 35.2611 231.767 35.3271C232.139 35.3871 232.505 35.4951 232.865 35.6511L231.776 44.4711H230.948C230.738 44.4711 230.594 44.4171 230.516 44.3091C230.444 44.2011 230.408 44.0691 230.408 43.9131L230.579 42.0681ZM244.792 37.3431C244.564 37.0191 244.288 36.7941 243.964 36.6681C243.646 36.5361 243.322 36.4701 242.992 36.4701C242.518 36.4701 242.092 36.6111 241.714 36.8931C241.336 37.1751 241.012 37.5411 240.742 37.9911C240.478 38.4351 240.274 38.9331 240.13 39.4851C239.986 40.0371 239.914 40.5801 239.914 41.1141C239.914 41.8281 240.04 42.3741 240.292 42.7521C240.55 43.1241 240.916 43.3101 241.39 43.3101C241.678 43.3101 241.969 43.2201 242.263 43.0401C242.557 42.8601 242.839 42.6111 243.109 42.2931C243.385 41.9691 243.64 41.5881 243.874 41.1501C244.114 40.7121 244.321 40.2321 244.495 39.7101L244.792 37.3431ZM247.114 31.2141L245.485 44.4711H244.648C244.438 44.4711 244.297 44.4171 244.225 44.3091C244.153 44.2011 244.117 44.0691 244.117 43.9131L244.288 41.9961C244.06 42.3921 243.811 42.7491 243.541 43.0671C243.271 43.3851 242.986 43.6581 242.686 43.8861C242.392 44.1141 242.083 44.2911 241.759 44.4171C241.441 44.5371 241.117 44.5971 240.787 44.5971C240.007 44.5971 239.401 44.3151 238.969 43.7511C238.537 43.1811 238.321 42.3561 238.321 41.2761C238.321 40.7841 238.372 40.2921 238.474 39.8001C238.576 39.3081 238.72 38.8371 238.906 38.3871C239.098 37.9371 239.326 37.5201 239.59 37.1361C239.86 36.7461 240.16 36.4101 240.49 36.1281C240.82 35.8461 241.174 35.6241 241.552 35.4621C241.936 35.3001 242.338 35.2191 242.758 35.2191C243.208 35.2191 243.616 35.3091 243.982 35.4891C244.354 35.6631 244.669 35.9121 244.927 36.2361L245.548 31.2141H247.114ZM252.52 36.3801C252.142 36.3801 251.794 36.4581 251.476 36.6141C251.158 36.7701 250.876 36.9861 250.63 37.2621C250.384 37.5321 250.174 37.8531 250 38.2251C249.826 38.5911 249.691 38.9871 249.595 39.4131C250.519 39.2991 251.26 39.1701 251.818 39.0261C252.376 38.8761 252.805 38.7171 253.105 38.5491C253.405 38.3751 253.603 38.1891 253.699 37.9911C253.795 37.7931 253.843 37.5861 253.843 37.3701C253.843 37.2621 253.819 37.1511 253.771 37.0371C253.723 36.9171 253.645 36.8091 253.537 36.7131C253.435 36.6171 253.3 36.5391 253.132 36.4791C252.964 36.4131 252.76 36.3801 252.52 36.3801ZM255.058 42.7881C254.752 43.1061 254.452 43.3791 254.158 43.6071C253.864 43.8291 253.564 44.0151 253.258 44.1651C252.958 44.3151 252.64 44.4231 252.304 44.4891C251.974 44.5611 251.617 44.5971 251.233 44.5971C250.711 44.5971 250.243 44.5101 249.829 44.3361C249.415 44.1621 249.064 43.9161 248.776 43.5981C248.488 43.2741 248.266 42.8841 248.11 42.4281C247.954 41.9721 247.876 41.4621 247.876 40.8981C247.876 40.4301 247.924 39.9651 248.02 39.5031C248.122 39.0351 248.266 38.5911 248.452 38.1711C248.644 37.7511 248.875 37.3611 249.145 37.0011C249.421 36.6411 249.733 36.3321 250.081 36.0741C250.435 35.8101 250.822 35.6031 251.242 35.4531C251.668 35.3031 252.124 35.2281 252.61 35.2281C253.072 35.2281 253.471 35.2941 253.807 35.4261C254.143 35.5581 254.419 35.7261 254.635 35.9301C254.851 36.1341 255.01 36.3591 255.112 36.6051C255.22 36.8511 255.274 37.0851 255.274 37.3071C255.274 37.7031 255.193 38.0691 255.031 38.4051C254.869 38.7351 254.572 39.0351 254.14 39.3051C253.708 39.5691 253.114 39.8001 252.358 39.9981C251.602 40.1961 250.63 40.3551 249.442 40.4751C249.442 40.5411 249.439 40.6071 249.433 40.6731C249.433 40.7331 249.433 40.7961 249.433 40.8621C249.433 41.6661 249.607 42.2811 249.955 42.7071C250.309 43.1271 250.84 43.3371 251.548 43.3371C251.836 43.3371 252.091 43.3071 252.313 43.2471C252.541 43.1871 252.742 43.1151 252.916 43.0311C253.096 42.9411 253.252 42.8451 253.384 42.7431C253.522 42.6351 253.645 42.5391 253.753 42.4551C253.867 42.3651 253.972 42.2901 254.068 42.2301C254.164 42.1701 254.26 42.1401 254.356 42.1401C254.47 42.1401 254.572 42.1911 254.662 42.2931L255.058 42.7881ZM266.963 36.4701C266.831 36.4401 266.699 36.4221 266.567 36.4161C266.441 36.4041 266.315 36.3981 266.189 36.3981C265.829 36.3981 265.481 36.4581 265.145 36.5781C264.809 36.6921 264.494 36.8541 264.2 37.0641C263.906 37.2741 263.639 37.5261 263.399 37.8201C263.159 38.1081 262.952 38.4261 262.778 38.7741C262.61 39.1221 262.478 39.4941 262.382 39.8901C262.286 40.2801 262.238 40.6821 262.238 41.0961C262.238 42.5421 262.7 43.2651 263.624 43.2651C263.918 43.2651 264.206 43.1751 264.488 42.9951C264.77 42.8091 265.037 42.5541 265.289 42.2301C265.547 41.9001 265.784 41.5131 266 41.0691C266.216 40.6191 266.408 40.1271 266.576 39.5931L266.963 36.4701ZM266.351 42.0681C266.135 42.4521 265.901 42.8001 265.649 43.1121C265.403 43.4241 265.139 43.6911 264.857 43.9131C264.581 44.1291 264.287 44.2971 263.975 44.4171C263.669 44.5371 263.351 44.5971 263.021 44.5971C262.661 44.5971 262.334 44.5281 262.04 44.3901C261.746 44.2461 261.494 44.0391 261.284 43.7691C261.08 43.4931 260.921 43.1571 260.807 42.7611C260.693 42.3591 260.636 41.9001 260.636 41.3841C260.636 40.8441 260.702 40.3191 260.834 39.8091C260.972 39.2931 261.164 38.8071 261.41 38.3511C261.662 37.8951 261.962 37.4781 262.31 37.1001C262.658 36.7161 263.045 36.3861 263.471 36.1101C263.903 35.8281 264.365 35.6121 264.857 35.4621C265.349 35.3061 265.865 35.2281 266.405 35.2281C266.795 35.2281 267.173 35.2611 267.539 35.3271C267.911 35.3871 268.277 35.4951 268.637 35.6511L267.548 44.4711H266.72C266.51 44.4711 266.366 44.4171 266.288 44.3091C266.216 44.2011 266.18 44.0691 266.18 43.9131L266.351 42.0681ZM276.345 37.3431C276.117 37.0191 275.841 36.7941 275.517 36.6681C275.199 36.5361 274.875 36.4701 274.545 36.4701C274.071 36.4701 273.645 36.6111 273.267 36.8931C272.889 37.1751 272.565 37.5411 272.295 37.9911C272.031 38.4351 271.827 38.9331 271.683 39.4851C271.539 40.0371 271.467 40.5801 271.467 41.1141C271.467 41.8281 271.593 42.3741 271.845 42.7521C272.103 43.1241 272.469 43.3101 272.943 43.3101C273.231 43.3101 273.522 43.2201 273.816 43.0401C274.11 42.8601 274.392 42.6111 274.662 42.2931C274.938 41.9691 275.193 41.5881 275.427 41.1501C275.667 40.7121 275.874 40.2321 276.048 39.7101L276.345 37.3431ZM278.667 31.2141L277.038 44.4711H276.201C275.991 44.4711 275.85 44.4171 275.778 44.3091C275.706 44.2011 275.67 44.0691 275.67 43.9131L275.841 41.9961C275.613 42.3921 275.364 42.7491 275.094 43.0671C274.824 43.3851 274.539 43.6581 274.239 43.8861C273.945 44.1141 273.636 44.2911 273.312 44.4171C272.994 44.5371 272.67 44.5971 272.34 44.5971C271.56 44.5971 270.954 44.3151 270.522 43.7511C270.09 43.1811 269.874 42.3561 269.874 41.2761C269.874 40.7841 269.925 40.2921 270.027 39.8001C270.129 39.3081 270.273 38.8371 270.459 38.3871C270.651 37.9371 270.879 37.5201 271.143 37.1361C271.413 36.7461 271.713 36.4101 272.043 36.1281C272.373 35.8461 272.727 35.6241 273.105 35.4621C273.489 35.3001 273.891 35.2191 274.311 35.2191C274.761 35.2191 275.169 35.3091 275.535 35.4891C275.907 35.6631 276.222 35.9121 276.48 36.2361L277.101 31.2141H278.667ZM279.437 44.4711L280.535 35.3451H281.327C281.693 35.3451 281.876 35.5251 281.876 35.8851L281.75 37.5051C282.2 36.7551 282.692 36.1881 283.226 35.8041C283.766 35.4141 284.33 35.2191 284.918 35.2191C285.536 35.2191 285.992 35.4321 286.286 35.8581C286.58 36.2781 286.727 36.8811 286.727 37.6671C287.177 36.8331 287.684 36.2181 288.248 35.8221C288.818 35.4201 289.418 35.2191 290.048 35.2191C290.828 35.2191 291.38 35.5191 291.704 36.1191C292.028 36.7191 292.124 37.5681 291.992 38.6661L291.308 44.4711H289.724L290.417 38.6661C290.501 37.9521 290.477 37.4211 290.345 37.0731C290.219 36.7251 289.931 36.5511 289.481 36.5511C289.223 36.5511 288.965 36.6171 288.707 36.7491C288.455 36.8751 288.209 37.0641 287.969 37.3161C287.729 37.5621 287.504 37.8711 287.294 38.2431C287.09 38.6091 286.907 39.0321 286.745 39.5121V39.5211L286.16 44.4711H284.576L285.26 38.6661C285.35 37.9521 285.338 37.4211 285.224 37.0731C285.11 36.7251 284.828 36.5511 284.378 36.5511C284.09 36.5511 283.811 36.6231 283.541 36.7671C283.277 36.9111 283.025 37.1211 282.785 37.3971C282.551 37.6671 282.332 38.0001 282.128 38.3961C281.924 38.7861 281.738 39.2271 281.57 39.7191L281.003 44.4711H279.437ZM296.368 35.3541L295.27 44.4711H293.695L294.793 35.3541H296.368ZM296.98 32.4921C296.98 32.6481 296.947 32.7951 296.881 32.9331C296.821 33.0651 296.737 33.1851 296.629 33.2931C296.527 33.3951 296.407 33.4761 296.269 33.5361C296.137 33.5961 295.999 33.6261 295.855 33.6261C295.717 33.6261 295.582 33.5961 295.45 33.5361C295.318 33.4761 295.201 33.3951 295.099 33.2931C295.003 33.1851 294.925 33.0651 294.865 32.9331C294.805 32.7951 294.775 32.6481 294.775 32.4921C294.775 32.3361 294.805 32.1891 294.865 32.0511C294.925 31.9131 295.006 31.7931 295.108 31.6911C295.21 31.5831 295.327 31.4991 295.459 31.4391C295.591 31.3731 295.726 31.3401 295.864 31.3401C296.008 31.3401 296.146 31.3701 296.278 31.4301C296.416 31.4901 296.536 31.5741 296.638 31.6821C296.74 31.7841 296.821 31.9071 296.881 32.0511C296.947 32.1891 296.98 32.3361 296.98 32.4921ZM300.049 37.6581C300.535 36.8541 301.084 36.2481 301.696 35.8401C302.308 35.4261 302.938 35.2191 303.586 35.2191C303.97 35.2191 304.306 35.2971 304.594 35.4531C304.888 35.6031 305.125 35.8251 305.305 36.1191C305.491 36.4131 305.617 36.7761 305.683 37.2081C305.749 37.6341 305.749 38.1201 305.683 38.6661L304.999 44.4711H303.406L304.09 38.6661C304.174 37.9461 304.129 37.4151 303.955 37.0731C303.781 36.7251 303.46 36.5511 302.992 36.5511C302.704 36.5511 302.41 36.6291 302.11 36.7851C301.816 36.9411 301.531 37.1631 301.255 37.4511C300.979 37.7391 300.721 38.0871 300.481 38.4951C300.247 38.8971 300.046 39.3471 299.878 39.8451L299.356 44.4711H297.754L298.852 35.3451H299.644C300.004 35.3451 300.184 35.5251 300.184 35.8851L300.049 37.6581ZM310.062 35.3541L308.964 44.4711H307.389L308.487 35.3541H310.062ZM310.674 32.4921C310.674 32.6481 310.641 32.7951 310.575 32.9331C310.515 33.0651 310.431 33.1851 310.323 33.2931C310.221 33.3951 310.101 33.4761 309.963 33.5361C309.831 33.5961 309.693 33.6261 309.549 33.6261C309.411 33.6261 309.276 33.5961 309.144 33.5361C309.012 33.4761 308.895 33.3951 308.793 33.2931C308.697 33.1851 308.619 33.0651 308.559 32.9331C308.499 32.7951 308.469 32.6481 308.469 32.4921C308.469 32.3361 308.499 32.1891 308.559 32.0511C308.619 31.9131 308.7 31.7931 308.802 31.6911C308.904 31.5831 309.021 31.4991 309.153 31.4391C309.285 31.3731 309.42 31.3401 309.558 31.3401C309.702 31.3401 309.84 31.3701 309.972 31.4301C310.11 31.4901 310.23 31.5741 310.332 31.6821C310.434 31.7841 310.515 31.9071 310.575 32.0511C310.641 32.1891 310.674 32.3361 310.674 32.4921ZM317.324 36.8121C317.276 36.8841 317.228 36.9381 317.18 36.9741C317.132 37.0041 317.072 37.0191 317 37.0191C316.916 37.0191 316.823 36.9861 316.721 36.9201C316.625 36.8541 316.505 36.7821 316.361 36.7041C316.223 36.6201 316.052 36.5451 315.848 36.4791C315.644 36.4071 315.398 36.3711 315.11 36.3711C314.84 36.3711 314.594 36.4101 314.372 36.4881C314.15 36.5601 313.958 36.6621 313.796 36.7941C313.64 36.9261 313.517 37.0821 313.427 37.2621C313.343 37.4361 313.301 37.6221 313.301 37.8201C313.301 38.1021 313.394 38.3271 313.58 38.4951C313.766 38.6631 314 38.8101 314.282 38.9361C314.564 39.0561 314.867 39.1731 315.191 39.2871C315.515 39.4011 315.818 39.5451 316.1 39.7191C316.382 39.8931 316.616 40.1151 316.802 40.3851C316.988 40.6551 317.081 41.0061 317.081 41.4381C317.081 41.8581 316.997 42.2601 316.829 42.6441C316.667 43.0281 316.43 43.3671 316.118 43.6611C315.812 43.9491 315.44 44.1801 315.002 44.3541C314.57 44.5281 314.084 44.6151 313.544 44.6151C312.962 44.6151 312.446 44.5131 311.996 44.3091C311.552 44.0991 311.189 43.8321 310.907 43.5081L311.303 42.8961C311.357 42.8181 311.414 42.7581 311.474 42.7161C311.54 42.6741 311.624 42.6531 311.726 42.6531C311.822 42.6531 311.918 42.6951 312.014 42.7791C312.11 42.8631 312.23 42.9591 312.374 43.0671C312.518 43.1691 312.698 43.2621 312.914 43.3461C313.136 43.4301 313.415 43.4721 313.751 43.4721C314.045 43.4721 314.309 43.4271 314.543 43.3371C314.783 43.2471 314.984 43.1271 315.146 42.9771C315.314 42.8271 315.44 42.6531 315.524 42.4551C315.614 42.2511 315.659 42.0351 315.659 41.8071C315.659 41.5011 315.566 41.2581 315.38 41.0781C315.194 40.8981 314.96 40.7481 314.678 40.6281C314.396 40.5081 314.093 40.3971 313.769 40.2951C313.445 40.1871 313.142 40.0521 312.86 39.8901C312.578 39.7221 312.344 39.5061 312.158 39.2421C311.972 38.9781 311.879 38.6271 311.879 38.1891C311.879 37.8051 311.954 37.4361 312.104 37.0821C312.26 36.7221 312.482 36.4041 312.77 36.1281C313.058 35.8521 313.406 35.6331 313.814 35.4711C314.228 35.3031 314.693 35.2191 315.209 35.2191C315.755 35.2191 316.235 35.3121 316.649 35.4981C317.069 35.6781 317.429 35.9241 317.729 36.2361L317.324 36.8121ZM319.374 42.7521C319.374 42.7161 319.374 42.6711 319.374 42.6171C319.374 42.5571 319.377 42.4731 319.383 42.3651C319.395 42.2571 319.41 42.1161 319.428 41.9421C319.452 41.7681 319.482 41.5401 319.518 41.2581L320.076 36.6951H319.059C318.975 36.6951 318.906 36.6681 318.852 36.6141C318.804 36.5541 318.786 36.4641 318.798 36.3441L318.87 35.7051L320.274 35.5161L320.958 32.6991C320.988 32.6091 321.033 32.5371 321.093 32.4831C321.159 32.4231 321.24 32.3931 321.336 32.3931H322.173L321.786 35.5341H324.18L324.045 36.6951H321.642L321.093 41.1771C321.063 41.4231 321.039 41.6211 321.021 41.7711C321.003 41.9211 320.988 42.0411 320.976 42.1311C320.97 42.2211 320.964 42.2841 320.958 42.3201C320.958 42.3561 320.958 42.3831 320.958 42.4011C320.958 42.7071 321.03 42.9351 321.174 43.0851C321.318 43.2291 321.51 43.3011 321.75 43.3011C321.912 43.3011 322.05 43.2801 322.164 43.2381C322.284 43.1901 322.389 43.1391 322.479 43.0851C322.569 43.0311 322.644 42.9831 322.704 42.9411C322.764 42.8931 322.815 42.8691 322.857 42.8691C322.911 42.8691 322.95 42.8811 322.974 42.9051C323.004 42.9291 323.031 42.9681 323.055 43.0221L323.397 43.7871C323.103 44.0451 322.767 44.2491 322.389 44.3991C322.017 44.5431 321.642 44.6151 321.264 44.6151C320.682 44.6151 320.223 44.4561 319.887 44.1381C319.557 43.8201 319.386 43.3581 319.374 42.7521ZM327.321 37.8921C327.561 37.3821 327.819 36.9411 328.095 36.5691C328.377 36.1911 328.671 35.8971 328.977 35.6871C329.283 35.4711 329.598 35.3421 329.922 35.3001C330.246 35.2521 330.576 35.3001 330.912 35.4441L330.624 36.9831C329.844 36.6711 329.154 36.7851 328.554 37.3251C327.96 37.8651 327.477 38.8401 327.105 40.2501L326.601 44.4711H325.035L326.133 35.3451H326.925C327.291 35.3451 327.474 35.5251 327.474 35.8851L327.321 37.8921ZM336.941 36.4701C336.809 36.4401 336.677 36.4221 336.545 36.4161C336.419 36.4041 336.293 36.3981 336.167 36.3981C335.807 36.3981 335.459 36.4581 335.123 36.5781C334.787 36.6921 334.472 36.8541 334.178 37.0641C333.884 37.2741 333.617 37.5261 333.377 37.8201C333.137 38.1081 332.93 38.4261 332.756 38.7741C332.588 39.1221 332.456 39.4941 332.36 39.8901C332.264 40.2801 332.216 40.6821 332.216 41.0961C332.216 42.5421 332.678 43.2651 333.602 43.2651C333.896 43.2651 334.184 43.1751 334.466 42.9951C334.748 42.8091 335.015 42.5541 335.267 42.2301C335.525 41.9001 335.762 41.5131 335.978 41.0691C336.194 40.6191 336.386 40.1271 336.554 39.5931L336.941 36.4701ZM336.329 42.0681C336.113 42.4521 335.879 42.8001 335.627 43.1121C335.381 43.4241 335.117 43.6911 334.835 43.9131C334.559 44.1291 334.265 44.2971 333.953 44.4171C333.647 44.5371 333.329 44.5971 332.999 44.5971C332.639 44.5971 332.312 44.5281 332.018 44.3901C331.724 44.2461 331.472 44.0391 331.262 43.7691C331.058 43.4931 330.899 43.1571 330.785 42.7611C330.671 42.3591 330.614 41.9001 330.614 41.3841C330.614 40.8441 330.68 40.3191 330.812 39.8091C330.95 39.2931 331.142 38.8071 331.388 38.3511C331.64 37.8951 331.94 37.4781 332.288 37.1001C332.636 36.7161 333.023 36.3861 333.449 36.1101C333.881 35.8281 334.343 35.6121 334.835 35.4621C335.327 35.3061 335.843 35.2281 336.383 35.2281C336.773 35.2281 337.151 35.2611 337.517 35.3271C337.889 35.3871 338.255 35.4951 338.615 35.6511L337.526 44.4711H336.698C336.488 44.4711 336.344 44.4171 336.266 44.3091C336.194 44.2011 336.158 44.0691 336.158 43.9131L336.329 42.0681ZM346.638 37.0821C346.596 37.1301 346.548 37.1691 346.494 37.1991C346.446 37.2291 346.389 37.2441 346.323 37.2441C346.239 37.2441 346.155 37.2081 346.071 37.1361C345.993 37.0581 345.888 36.9741 345.756 36.8841C345.624 36.7881 345.459 36.7041 345.261 36.6321C345.069 36.5541 344.82 36.5151 344.514 36.5151C344.1 36.5151 343.71 36.6291 343.344 36.8571C342.978 37.0791 342.657 37.3851 342.381 37.7751C342.105 38.1651 341.886 38.6271 341.724 39.1611C341.568 39.6951 341.49 40.2681 341.49 40.8801C341.49 41.2521 341.532 41.5911 341.616 41.8971C341.7 42.1971 341.826 42.4551 341.994 42.6711C342.162 42.8811 342.366 43.0461 342.606 43.1661C342.852 43.2801 343.137 43.3371 343.461 43.3371C343.863 43.3371 344.199 43.2771 344.469 43.1571C344.745 43.0371 344.976 42.9081 345.162 42.7701C345.348 42.6261 345.504 42.4941 345.63 42.3741C345.762 42.2541 345.891 42.1941 346.017 42.1941C346.131 42.1941 346.233 42.2451 346.323 42.3471L346.719 42.8331C346.437 43.1451 346.167 43.4091 345.909 43.6251C345.651 43.8411 345.393 44.0181 345.135 44.1561C344.883 44.2881 344.622 44.3901 344.352 44.4621C344.088 44.5281 343.806 44.5701 343.506 44.5881L343.29 45.1551C343.746 45.2571 344.076 45.4011 344.28 45.5871C344.49 45.7791 344.595 46.0131 344.595 46.2891C344.595 46.5051 344.544 46.7001 344.442 46.8741C344.346 47.0481 344.208 47.1951 344.028 47.3151C343.848 47.4351 343.635 47.5251 343.389 47.5851C343.143 47.6511 342.876 47.6841 342.588 47.6841C342.36 47.6841 342.147 47.6571 341.949 47.6031C341.751 47.5551 341.571 47.4891 341.409 47.4051L341.625 46.9101C341.667 46.8021 341.742 46.7481 341.85 46.7481C341.886 46.7481 341.922 46.7571 341.958 46.7751C342 46.7991 342.048 46.8231 342.102 46.8471C342.156 46.8771 342.222 46.9011 342.3 46.9191C342.378 46.9431 342.474 46.9551 342.588 46.9551C342.828 46.9551 343.011 46.8981 343.137 46.7841C343.263 46.6701 343.326 46.5261 343.326 46.3521C343.326 46.1481 343.218 46.0011 343.002 45.9111C342.792 45.8271 342.492 45.7581 342.102 45.7041L342.606 44.5611C342.162 44.5011 341.769 44.3721 341.427 44.1741C341.091 43.9701 340.806 43.7091 340.572 43.3911C340.344 43.0671 340.17 42.6921 340.05 42.2661C339.936 41.8401 339.879 41.3751 339.879 40.8711C339.879 40.1331 339.993 39.4251 340.221 38.7471C340.455 38.0691 340.779 37.4691 341.193 36.9471C341.607 36.4251 342.099 36.0081 342.669 35.6961C343.245 35.3841 343.872 35.2281 344.55 35.2281C345.156 35.2281 345.663 35.3361 346.071 35.5521C346.479 35.7621 346.836 36.0711 347.142 36.4791L346.638 37.0821ZM354.185 36.4701C354.053 36.4401 353.921 36.4221 353.789 36.4161C353.663 36.4041 353.537 36.3981 353.411 36.3981C353.051 36.3981 352.703 36.4581 352.367 36.5781C352.031 36.6921 351.716 36.8541 351.422 37.0641C351.128 37.2741 350.861 37.5261 350.621 37.8201C350.381 38.1081 350.174 38.4261 350 38.7741C349.832 39.1221 349.7 39.4941 349.604 39.8901C349.508 40.2801 349.46 40.6821 349.46 41.0961C349.46 42.5421 349.922 43.2651 350.846 43.2651C351.14 43.2651 351.428 43.1751 351.71 42.9951C351.992 42.8091 352.259 42.5541 352.511 42.2301C352.769 41.9001 353.006 41.5131 353.222 41.0691C353.438 40.6191 353.63 40.1271 353.798 39.5931L354.185 36.4701ZM353.573 42.0681C353.357 42.4521 353.123 42.8001 352.871 43.1121C352.625 43.4241 352.361 43.6911 352.079 43.9131C351.803 44.1291 351.509 44.2971 351.197 44.4171C350.891 44.5371 350.573 44.5971 350.243 44.5971C349.883 44.5971 349.556 44.5281 349.262 44.3901C348.968 44.2461 348.716 44.0391 348.506 43.7691C348.302 43.4931 348.143 43.1571 348.029 42.7611C347.915 42.3591 347.858 41.9001 347.858 41.3841C347.858 40.8441 347.924 40.3191 348.056 39.8091C348.194 39.2931 348.386 38.8071 348.632 38.3511C348.884 37.8951 349.184 37.4781 349.532 37.1001C349.88 36.7161 350.267 36.3861 350.693 36.1101C351.125 35.8281 351.587 35.6121 352.079 35.4621C352.571 35.3061 353.087 35.2281 353.627 35.2281C354.017 35.2281 354.395 35.2611 354.761 35.3271C355.133 35.3871 355.499 35.4951 355.859 35.6511L354.77 44.4711H353.942C353.732 44.4711 353.588 44.4171 353.51 44.3091C353.438 44.2011 353.402 44.0691 353.402 43.9131L353.573 42.0681ZM354.536 32.5461C354.938 32.5461 355.175 32.2881 355.247 31.7721H356.147C356.117 32.0541 356.054 32.3151 355.958 32.5551C355.862 32.7891 355.739 32.9901 355.589 33.1581C355.439 33.3261 355.268 33.4581 355.076 33.5541C354.89 33.6441 354.686 33.6891 354.464 33.6891C354.272 33.6891 354.095 33.6471 353.933 33.5631C353.777 33.4731 353.63 33.3771 353.492 33.2751C353.354 33.1731 353.222 33.0801 353.096 32.9961C352.976 32.9061 352.853 32.8611 352.727 32.8611C352.325 32.8611 352.091 33.1251 352.025 33.6531H351.107C351.137 33.3651 351.2 33.1041 351.296 32.8701C351.398 32.6301 351.524 32.4261 351.674 32.2581C351.824 32.0841 351.995 31.9521 352.187 31.8621C352.379 31.7661 352.583 31.7181 352.799 31.7181C352.997 31.7181 353.174 31.7631 353.33 31.8531C353.486 31.9371 353.633 32.0301 353.771 32.1321C353.909 32.2341 354.038 32.3301 354.158 32.4201C354.284 32.5041 354.41 32.5461 354.536 32.5461ZM360.679 43.3461C361.117 43.3461 361.513 43.2261 361.867 42.9861C362.227 42.7461 362.533 42.4281 362.785 42.0321C363.043 41.6301 363.241 41.1681 363.379 40.6461C363.517 40.1241 363.586 39.5781 363.586 39.0081C363.586 38.1681 363.418 37.5381 363.082 37.1181C362.752 36.6921 362.275 36.4791 361.651 36.4791C361.207 36.4791 360.805 36.5991 360.445 36.8391C360.091 37.0731 359.788 37.3881 359.536 37.7841C359.284 38.1801 359.089 38.6391 358.951 39.1611C358.813 39.6831 358.744 40.2291 358.744 40.7991C358.744 41.6391 358.909 42.2751 359.239 42.7071C359.569 43.1331 360.049 43.3461 360.679 43.3461ZM360.526 44.5971C360.028 44.5971 359.572 44.5131 359.158 44.3451C358.744 44.1711 358.387 43.9221 358.087 43.5981C357.787 43.2741 357.553 42.8781 357.385 42.4101C357.217 41.9421 357.133 41.4081 357.133 40.8081C357.133 40.0401 357.253 39.3171 357.493 38.6391C357.733 37.9611 358.063 37.3701 358.483 36.8661C358.903 36.3561 359.395 35.9541 359.959 35.6601C360.529 35.3661 361.141 35.2191 361.795 35.2191C362.293 35.2191 362.749 35.3061 363.163 35.4801C363.577 35.6481 363.934 35.8941 364.234 36.2181C364.534 36.5421 364.768 36.9381 364.936 37.4061C365.104 37.8741 365.188 38.4051 365.188 38.9991C365.188 39.7611 365.068 40.4811 364.828 41.1591C364.588 41.8371 364.258 42.4311 363.838 42.9411C363.424 43.4511 362.932 43.8561 362.362 44.1561C361.792 44.4501 361.18 44.5971 360.526 44.5971Z" fill="white"/>
<path d="M27.927 28.759C24.6878 28.913 21.9632 29.2055 19.7532 29.6365C17.5433 30.0368 15.7723 30.5602 14.4403 31.2067C13.1083 31.8533 12.1547 32.6076 11.5795 33.4697C11.0043 34.3318 10.7167 35.2708 10.7167 36.2868C10.7167 38.2881 11.2919 39.7198 12.4423 40.5818C13.6229 41.4439 15.1517 41.875 17.0287 41.875C19.3294 41.875 21.3123 41.4593 22.9773 40.628C24.6726 39.7659 26.3225 38.4728 27.927 36.7487V28.759ZM2.22508 8.20767C7.58343 3.21992 14.0316 0.726044 21.5696 0.726044C24.2942 0.726044 26.7312 1.18787 28.8806 2.11153C31.03 3.0044 32.8464 4.26673 34.3298 5.89852C35.8132 7.49953 36.9333 9.42381 37.6901 11.6714C38.4772 13.9189 38.8708 16.382 38.8708 19.0606V48.9871H33.7849C32.7253 48.9871 31.9079 48.8332 31.3327 48.5253C30.7575 48.1866 30.3035 47.5247 29.9704 46.5394L28.9714 43.1219C27.7908 44.1995 26.6404 45.1539 25.5203 45.9852C24.4002 46.7857 23.2347 47.4631 22.0237 48.0173C20.8128 48.5715 19.5111 48.9871 18.1185 49.2642C16.7562 49.5721 15.2425 49.726 13.5775 49.726C11.6098 49.726 9.79337 49.4643 8.12835 48.9409C6.46332 48.3867 5.02535 47.5708 3.81442 46.4932C2.60349 45.4156 1.66502 44.0763 0.999015 42.4753C0.333005 40.8743 0 39.0116 0 36.8872C0 35.6865 0.196776 34.5011 0.590327 33.3311C0.983878 32.1304 1.61961 30.9912 2.49754 29.9136C3.40573 28.836 4.57125 27.82 5.99409 26.8655C7.41693 25.9111 9.15764 25.0798 11.2162 24.3717C13.3051 23.6635 15.7269 23.0939 18.4818 22.6629C21.2366 22.2011 24.385 21.924 27.927 21.8316V19.0606C27.927 15.8894 27.261 13.5495 25.929 12.0408C24.597 10.5014 22.6746 9.7317 20.1619 9.7317C18.3455 9.7317 16.8319 9.94722 15.621 10.3783C14.4403 10.8093 13.3959 11.3019 12.4877 11.8561C11.5795 12.3795 10.747 12.8567 9.99015 13.2878C9.26359 13.7188 8.44622 13.9343 7.53802 13.9343C6.75092 13.9343 6.08491 13.7342 5.53999 13.334C4.99507 12.9029 4.55611 12.4103 4.22311 11.8561L2.22508 8.20767Z" fill="white"/>
<path d="M49.4342 48.9871V1.60352H56.2911C57.7442 1.60352 58.6978 2.29626 59.1519 3.68175L59.8784 7.19164C60.6958 6.26799 61.5435 5.4213 62.4214 4.65159C63.3296 3.88187 64.2832 3.21992 65.2822 2.66573C66.3115 2.11153 67.4013 1.68049 68.5517 1.37261C69.7324 1.03393 71.019 0.864593 72.4115 0.864593C75.348 0.864593 77.7548 1.68049 79.6317 3.31229C81.5389 4.91329 82.9618 7.0531 83.9002 9.7317C84.6268 8.16148 85.535 6.82218 86.6248 5.71379C87.7146 4.57462 88.9104 3.65096 90.2122 2.94282C91.5139 2.23468 92.8914 1.71128 94.3445 1.37261C95.8279 1.03393 97.3112 0.864593 98.7946 0.864593C101.368 0.864593 103.653 1.26484 105.651 2.06535C107.65 2.86585 109.33 4.03582 110.692 5.57524C112.054 7.11467 113.084 8.99277 113.78 11.2096C114.506 13.4263 114.87 15.9664 114.87 18.8297V33.5928H103.653V18.8297C103.653 15.8124 103.003 13.5495 101.701 12.0408C100.399 10.5014 98.4919 9.7317 95.9792 9.7317C94.8288 9.7317 93.7541 9.93183 92.7551 10.3321C91.7864 10.7323 90.9236 11.3173 90.1668 12.087C89.4402 12.826 88.865 13.765 88.4412 14.9042C88.0174 16.0434 87.8055 17.3519 87.8055 18.8297V48.9871H76.5438V18.8297C76.5438 15.6585 75.9081 13.3494 74.6366 11.9023C73.3954 10.4552 71.5639 9.7317 69.142 9.7317C67.5073 9.7317 65.9785 10.1473 64.5557 10.9786C63.1631 11.7791 61.8613 12.8875 60.6504 14.3038V48.9871H49.4342Z" fill="white"/>
<path d="M153.958 10.8401C153.655 11.3327 153.337 11.6868 153.004 11.9023C152.671 12.087 152.247 12.1794 151.732 12.1794C151.188 12.1794 150.597 12.0254 149.961 11.7176C149.356 11.4097 148.645 11.071 147.827 10.7015C147.01 10.3013 146.071 9.94722 145.012 9.63933C143.983 9.33145 142.756 9.17751 141.334 9.17751C139.124 9.17751 137.383 9.65473 136.112 10.6092C134.87 11.5636 134.25 12.8106 134.25 14.35C134.25 15.366 134.568 16.2281 135.203 16.9362C135.869 17.6136 136.732 18.2139 137.792 18.7374C138.882 19.2608 140.108 19.738 141.47 20.169C142.832 20.5693 144.21 21.0157 145.602 21.5083C147.025 22.0009 148.418 22.5705 149.78 23.2171C151.142 23.8329 152.353 24.6334 153.413 25.6186C154.502 26.573 155.365 27.7276 156.001 29.0823C156.667 30.437 157 32.0688 157 33.9777C157 36.256 156.591 38.3651 155.774 40.3047C154.987 42.2136 153.806 43.8762 152.232 45.2925C150.658 46.678 148.705 47.771 146.374 48.5715C144.073 49.3412 141.409 49.726 138.382 49.726C136.778 49.726 135.203 49.5721 133.659 49.2642C132.146 48.9871 130.677 48.5869 129.255 48.0635C127.862 47.5401 126.56 46.9243 125.349 46.2162C124.169 45.508 123.124 44.7383 122.216 43.907L124.804 39.5658C125.137 39.0424 125.531 38.6422 125.985 38.3651C126.439 38.088 127.014 37.9494 127.711 37.9494C128.407 37.9494 129.058 38.1495 129.663 38.5498C130.299 38.95 131.026 39.3811 131.843 39.8429C132.66 40.3047 133.614 40.7358 134.704 41.136C135.824 41.5363 137.232 41.7364 138.927 41.7364C140.259 41.7364 141.394 41.5825 142.333 41.2746C143.301 40.9359 144.089 40.5049 144.694 39.9815C145.33 39.4581 145.784 38.8577 146.056 38.1803C146.359 37.4722 146.51 36.7487 146.51 36.0097C146.51 34.9014 146.177 33.9931 145.511 33.285C144.876 32.5768 144.013 31.961 142.923 31.4376C141.863 30.9142 140.637 30.4524 139.245 30.0522C137.882 29.6211 136.475 29.1593 135.022 28.6667C133.599 28.174 132.191 27.6045 130.799 26.9579C129.436 26.2806 128.21 25.4339 127.12 24.4178C126.061 23.4018 125.198 22.1549 124.532 20.677C123.896 19.1992 123.578 17.4134 123.578 15.3198C123.578 13.3801 123.957 11.5328 124.714 9.77788C125.47 8.02294 126.575 6.4989 128.029 5.20578C129.512 3.88187 131.343 2.83506 133.523 2.06535C135.733 1.26484 138.276 0.864593 141.152 0.864593C144.361 0.864593 147.282 1.40339 149.916 2.48099C152.55 3.55859 154.745 4.97487 156.501 6.72982L153.958 10.8401Z" fill="white"/>
<circle cx="109" cy="43.726" r="6" fill="white"/>
</svg>
